<svg xmlns="http://www.w3.org/2000/svg" viewBox="0 0 82 82"><defs><style>.cls-1,.cls-2{fill:#fff;}.cls-2{opacity:0.4;}</style></defs><title>Монтажная область 5 копия 2</title><g id="Слой_10" data-name="Слой 10"><path class="cls-1" d="M34.64535,20.78516a19.47181,19.47181,0,0,0,13.27393,0,.375.375,0,0,0-.25293-.70605,18.73355,18.73355,0,0,1-12.76807,0,.375.375,0,1,0-.25293.70605Z"/><path class="cls-1" d="M59.7334,40.13l-3.17017-.79L58.70337,26.22A10.1113,10.1113,0,0,0,56.39331,17.96,10.75053,10.75053,0,0,0,44.47339,14.9a7.45148,7.45148,0,0,1-.92017.27,7.80416,7.80416,0,0,1-2.21.23l-.05994-.01-.05994.01a7.99515,7.99515,0,0,1-3.14014-.5,11.14608,11.14608,0,0,0-1.35986-.41,10.87989,10.87989,0,0,0-6.84009.68,10.75917,10.75917,0,0,0-2.99,2.03,10.38906,10.38906,0,0,0-.72.76,10.0763,10.0763,0,0,0-2.31,8.25995l.89,5.44.46,2.8.68,4.18-2.04-.51a.37841.37841,0,0,0-.46.28.36833.36833,0,0,0,.28.45l2.35.59,1.09,6.72-2.41-.61a.38629.38629,0,0,0-.46.28.36952.36952,0,0,0,.27.45l2.73.68,1.1,6.73-2.38-.6a.376.376,0,0,0-.18.73l2.69.67.26,1.57.13.81.84,5.2a7.868,7.868,0,0,0,2.13,4.52,9.16823,9.16823,0,0,0,6.61,2.8h5.67993a8.56833,8.56833,0,0,0,8.73-7.26l.24-1.49,2.98.75a.27874.27874,0,0,0,.09009.00995.37463.37463,0,0,0,.09-.74l-3.03992-.76,1.01-6.19,3.11987.78c.03,0,.06006.01.09009.01a.39319.39319,0,0,0,.36987-.29.37566.37566,0,0,0-.27991-.45l-3.18005-.8,1-6.12994,3.08008.77c.03,0,.06006.01.1.01a.38181.38181,0,0,0,.36-.29.36955.36955,0,0,0-.27-.45l-3.1499-.79.98-6.01,3.10986.78c.03,0,.06006.01.09009.01a.39335.39335,0,0,0,.37-.29A.37589.37589,0,0,0,59.7334,40.13Zm-5.90015-1.47-2.7-.68a.36954.36954,0,0,0-.45.27.3799.3799,0,0,0,.27.46l2.76.69L52.74329,45.41,46.69336,43.9l-2.72-.68005-6.70007-1.67a.37428.37428,0,0,0-.45007.27.3801.3801,0,0,0,.27.46l6.76,1.68,8.76,2.19-.99,6.14-6.05-1.50995-2.72-.68005-5.58-1.39a.37424.37424,0,0,0-.45007.27.38007.38007,0,0,0,.27.46l5.64014,1.4,2.72.68,6.03992,1.51-1,6.2-6.04993-1.51-2.72-.68-4.45007-1.11a.37428.37428,0,0,0-.45007.27.38.38,0,0,0,.27.46l4.51,1.12006,2.72.68,6.04,1.50995-.28,1.78a5.797,5.797,0,0,1-5.96,4.85H38.44336a6.48914,6.48914,0,0,1-1.72-.23,5.59279,5.59279,0,0,1-4.25006-4.68l-.66-4.07-.13-.81-.25995-1.57,1.12.28a.27639.27639,0,0,0,.09.01.36413.36413,0,0,0,.36-.28.37526.37526,0,0,0-.27-.46l-1.43-.36-.7-4.34-.13-.8-.26-1.58,2.34.59a.27639.27639,0,0,0,.09.01.36272.36272,0,0,0,.36-.29.36947.36947,0,0,0-.27-.45l-2.65-.66-.7-4.28-.13-.81-.27-1.63,3.57.89c.03,0,.06.01.09.01a.37632.37632,0,0,0,.09-.74005l-3.88-.97-.8-4.92h26.48Zm2.1001-12.89-.96,5.89H27.58331l-.95-5.89a7.18815,7.18815,0,0,1,.65-4.44,6.50376,6.50376,0,0,1,.38-.68,7.46251,7.46251,0,0,1,.64-.87,8.28928,8.28928,0,0,1,1.97-1.68005,7.84765,7.84765,0,0,1,6.45007-.71c.12988.04.25.08.37988.13a10.832,10.832,0,0,0,4.18005.68,11.48256,11.48256,0,0,0,1.86-.09,10.88476,10.88476,0,0,0,2.31006-.59,7.21,7.21,0,0,1,1.09985-.31,7.85634,7.85634,0,0,1,7.71008,2.57A7.28379,7.28379,0,0,1,55.93335,25.77Z"/><path class="cls-2" d="M55.93331,25.77l-.96,5.89h-6.29l.89-5.44a10.18505,10.18505,0,0,0-3.02-9.00995,7.85633,7.85633,0,0,1,7.71,2.57A7.28375,7.28375,0,0,1,55.93331,25.77Z"/><path class="cls-2" d="M50.68331,38.25a.38.38,0,0,0,.27.46l2.76.69-.97,6.00995L46.69332,43.9l1.54-9.44h6.29l-.69,4.2-2.7-.68A.36958.36958,0,0,0,50.68331,38.25Z"/><polygon class="cls-2" points="52.613 46.15 51.623 52.29 45.573 50.78 46.573 44.64 52.613 46.15"/><polygon class="cls-2" points="51.493 53.03 50.493 59.23 44.443 57.72 45.453 51.52 51.493 53.03"/><path class="cls-2" d="M50.36336,59.97l-.28,1.78a5.79717,5.79717,0,0,1-5.96,4.85H41.61336a7.673,7.673,0,0,0,2.11-4.46l.6-3.68Z"/></g></svg>