<svg id="Слой_4" data-name="Слой 4" xmlns="http://www.w3.org/2000/svg" viewBox="0 0 112 112"><defs><style>.cls-1{fill:#6a82a8;}</style></defs><title>kids</title><path class="cls-1" d="M75.12,84.36H20.72A7.77,7.77,0,0,1,13,76.6v-39a7.77,7.77,0,0,1,7.77-7.77h54.4a7.77,7.77,0,0,1,7.76,7.77v39A7.77,7.77,0,0,1,75.12,84.36ZM20.72,31.85A5.77,5.77,0,0,0,15,37.61v39a5.77,5.77,0,0,0,5.77,5.77h54.4a5.77,5.77,0,0,0,5.76-5.77v-39a5.77,5.77,0,0,0-5.76-5.77Z"/><path class="cls-1" d="M81.88,44.38H14a1,1,0,0,1,0-2H81.88a1,1,0,0,1,0,2Z"/><path class="cls-1" d="M22.63,35.67a1.45,1.45,0,1,0,1.45,1.45,1.45,1.45,0,0,0-1.45-1.45Z"/><path class="cls-1" d="M27.92,35.67a1.45,1.45,0,1,0,1.45,1.45,1.45,1.45,0,0,0-1.45-1.45Z"/><path class="cls-1" d="M33.22,35.67a1.45,1.45,0,1,0,1.45,1.45,1.45,1.45,0,0,0-1.45-1.45Z"/><path class="cls-1" d="M51,67.16a1,1,0,0,1-.89-.54l-2.24-4.33-2.24,4.33a1,1,0,0,1-1.82-.09L40,56.9a1,1,0,1,1,1.86-.74l3,7.61L47,59.66a1,1,0,0,1,1.78,0l2.13,4.11,3-7.61a1,1,0,1,1,1.86.74L52,66.53a1,1,0,0,1-.88.63Z"/><path class="cls-1" d="M25.52,67.16h0a1,1,0,0,1-.88-.63L20.73,56.9a1,1,0,1,1,1.86-.74l3,7.61,2.13-4.11a1,1,0,0,1,1.78,0l2.13,4.11,3-7.61a1,1,0,1,1,1.86.74l-3.85,9.64a1,1,0,0,1-1.82.09l-2.24-4.33L26.4,66.62A1,1,0,0,1,25.52,67.16Z"/><path class="cls-1" d="M70.32,67.16a1,1,0,0,1-.89-.54l-2.24-4.33-2.24,4.33a1,1,0,0,1-1.82-.09L59.27,56.9a1,1,0,1,1,1.86-.74l3,7.61,2.13-4.11a1,1,0,0,1,.89-.54h0a1,1,0,0,1,.89.54l2.13,4.11,3-7.61a1,1,0,1,1,1.86.74l-3.85,9.64a1,1,0,0,1-.88.63Z"/><path class="cls-1" d="M95.55,76.7H88a1,1,0,0,1-1-1v-40a4.78,4.78,0,0,1,9.57,0v40A1,1,0,0,1,95.55,76.7ZM89,74.7h5.57v-39a2.78,2.78,0,0,0-5.57,0Z"/><path class="cls-1" d="M91.77,84.53a1,1,0,0,1-.9-.56l-3.78-7.82A1,1,0,0,1,88,74.7h7.57a1,1,0,0,1,.9,1.44L92.67,84A1,1,0,0,1,91.77,84.53ZM89.58,76.7l2.19,4.53L94,76.7Z"/><path class="cls-1" d="M100.36,51.54a1,1,0,0,1-1-1V39H95.55a1,1,0,0,1,0-2h4.81a1,1,0,0,1,1,1V50.54A1,1,0,0,1,100.36,51.54Z"/></svg>