<svg xmlns="http://www.w3.org/2000/svg" viewBox="0 0 112 112"><defs><style>.cls-1{fill:#6a82a8;}</style></defs><title>kids</title><g id="Слой_13" data-name="Слой 13"><path class="cls-1" d="M92.56,82H17.75a1,1,0,0,1-1-1V33a1,1,0,0,1,1-1H92.56a1,1,0,0,1,1,1V81A1,1,0,0,1,92.56,82ZM18.75,80H91.56V34H18.75Z"/><path class="cls-1" d="M28.34,72.32H17.75a1,1,0,0,1-1-1V66a1,1,0,0,1,1-1H28.34a1,1,0,0,1,1,1v5.3A1,1,0,0,1,28.34,72.32Zm-9.59-2h8.59V67H18.75Z"/><path class="cls-1" d="M92.56,72.32H33.64a1,1,0,0,1-1-1V66a1,1,0,0,1,1-1H92.56a1,1,0,0,1,1,1v5.3A1,1,0,0,1,92.56,72.32Zm-57.92-2H91.56V67H34.64Z"/><path class="cls-1" d="M33.64,82h-5.3a1,1,0,0,1-1-1V33a1,1,0,0,1,1-1h5.3a1,1,0,0,1,1,1V81A1,1,0,0,1,33.64,82Zm-4.3-2h3.3V34h-3.3Z"/><path class="cls-1" d="M78.57,59.18a2,2,0,0,1-1.68-.9,1.1,1.1,0,0,0-1.76,0A2.07,2.07,0,0,1,71.36,57a1.07,1.07,0,0,0-1.42-1,2.07,2.07,0,0,1-2.33-3.21,1.07,1.07,0,0,0-.54-1.67,2.07,2.07,0,0,1,0-4,1.07,1.07,0,0,0,.54-1.67,2.07,2.07,0,0,1,2.33-3.21,1.07,1.07,0,0,0,1.42-1A2.07,2.07,0,0,1,75.13,40a1.1,1.1,0,0,0,1.76,0h0a2.07,2.07,0,0,1,3.77,1.23,1.07,1.07,0,0,0,1.42,1,2.07,2.07,0,0,1,2.33,3.21A1.07,1.07,0,0,0,85,47.17a2.07,2.07,0,0,1,0,4,1.07,1.07,0,0,0-.54,1.67A2.07,2.07,0,0,1,82.09,56a1.07,1.07,0,0,0-1.42,1,2,2,0,0,1-1.43,2A2.15,2.15,0,0,1,78.57,59.18ZM76,56.81a2.07,2.07,0,0,1,1.7.9,1.07,1.07,0,0,0,1.94-.63,2.07,2.07,0,0,1,2.76-2,1.07,1.07,0,0,0,1.2-1.66,2.07,2.07,0,0,1,1.05-3.24,1.07,1.07,0,0,0,0-2,2.07,2.07,0,0,1-1.05-3.24,1.07,1.07,0,0,0-1.2-1.65,2.07,2.07,0,0,1-2.76-2,1.07,1.07,0,0,0-1.94-.63,2.07,2.07,0,0,1-3.41,0,1.07,1.07,0,0,0-1.95.63,2.07,2.07,0,0,1-2.76,2,1.07,1.07,0,0,0-1.2,1.65,2.07,2.07,0,0,1-1.05,3.24,1.07,1.07,0,0,0,0,2,2.07,2.07,0,0,1,1.05,3.24,1.07,1.07,0,0,0,1.2,1.65,2.07,2.07,0,0,1,2.76,2,1.07,1.07,0,0,0,1.95.63A2.07,2.07,0,0,1,76,56.81Z"/><path class="cls-1" d="M61.11,42.94H39.27a.5.5,0,0,1,0-1H61.11a.5.5,0,0,1,0,1Z"/><path class="cls-1" d="M47.87,49.56H39.27a.5.5,0,0,1,0-1h8.61a.5.5,0,0,1,0,1Z"/><path class="cls-1" d="M61.11,49.56H52.51a.5.5,0,0,1,0-1h8.61a.5.5,0,0,1,0,1Z"/><path class="cls-1" d="M61.11,56.19H43.57a.5.5,0,0,1,0-1H61.11a.5.5,0,0,1,0,1Z"/></g></svg>