<svg xmlns="http://www.w3.org/2000/svg" viewBox="0 0 112 112"><defs><style>.cls-1{fill:#6a82a8;}</style></defs><title>kids</title><g id="Слой_12" data-name="Слой 12"><path class="cls-1" d="M84.61,57.13h-59a1,1,0,0,1-1-1v-31A5.16,5.16,0,0,1,29.74,20H80.46a5.16,5.16,0,0,1,5.16,5.16v31A1,1,0,0,1,84.61,57.13Zm-58-2h57v-30A3.16,3.16,0,0,0,80.46,22H29.74a3.16,3.16,0,0,0-3.16,3.16Z"/><path class="cls-1" d="M59.5,45H50.6a4.34,4.34,0,0,1-4.34-4.34V38.32a1,1,0,0,1,2,0v2.38A2.34,2.34,0,0,0,50.6,43h8.9a2.34,2.34,0,0,0,2.34-2.34V38.32a1,1,0,0,1,2,0v2.38A4.34,4.34,0,0,1,59.5,45Z"/><path class="cls-1" d="M76.24,92.25H30.87A6.29,6.29,0,0,1,24.59,86V56.13a1,1,0,0,1,1-1h59a1,1,0,0,1,1,1V77.26a1,1,0,0,1-2,0V57.13h-57V86a4.29,4.29,0,0,0,4.28,4.28H76.24a1,1,0,1,1,0,2Z"/><path class="cls-1" d="M59.5,80.17H50.6a4.34,4.34,0,0,1-4.34-4.34V73.45a1,1,0,0,1,2,0v2.38a2.34,2.34,0,0,0,2.34,2.34h8.9a2.34,2.34,0,0,0,2.34-2.34V73.45a1,1,0,0,1,2,0v2.38A4.34,4.34,0,0,1,59.5,80.17Z"/><path class="cls-1" d="M93.41,92.25H76.24a1,1,0,0,1-1-1v-14a1,1,0,0,1,1-1H93.41a1,1,0,0,1,1,1v14A1,1,0,0,1,93.41,92.25Zm-16.17-2H92.41v-12H77.24Z"/><path class="cls-1" d="M90.43,78.26H79.22a1,1,0,0,1-1-1V69.79a3.07,3.07,0,0,1,3.06-3.06h7.08a3.07,3.07,0,0,1,3.06,3.06v7.47A1,1,0,0,1,90.43,78.26Zm-10.21-2h9.21V69.79a1.06,1.06,0,0,0-1.06-1.06H81.28a1.06,1.06,0,0,0-1.06,1.06Z"/><circle class="cls-1" cx="84.82" cy="82.99" r="1.87"/><path class="cls-1" d="M84.82,87.64a1,1,0,0,1-1-1V83.38a1,1,0,0,1,2,0v3.26A1,1,0,0,1,84.82,87.64Z"/></g></svg>