<svg xmlns="http://www.w3.org/2000/svg" viewBox="0 0 112 112"><defs><style>.cls-1{fill:#4270b7;}</style></defs><title>kids</title><g id="Слой_3" data-name="Слой 3"><path class="cls-1" d="M61.52,85.11H15.06A5.57,5.57,0,0,1,9.5,79.55V69.09a5.57,5.57,0,0,1,5.56-5.56,3.32,3.32,0,0,0,3-2,72.41,72.41,0,0,0,2.7-9.2c.18-.74.36-1.44.53-2.08a9.12,9.12,0,0,1,8.82-6.84H46.42a9.12,9.12,0,0,1,8.82,6.84c.17.64.34,1.35.53,2.08a72.43,72.43,0,0,0,2.7,9.21,3.33,3.33,0,0,0,3,2,5.55,5.55,0,0,1,5.56,5.56V79.55A5.57,5.57,0,0,1,61.52,85.11ZM30.16,45.41a7.12,7.12,0,0,0-6.89,5.34c-.17.64-.34,1.34-.52,2.07a71.85,71.85,0,0,1-2.81,9.53,5.32,5.32,0,0,1-4.87,3.18,3.57,3.57,0,0,0-3.56,3.56V79.55a3.57,3.57,0,0,0,3.56,3.56H61.52a3.57,3.57,0,0,0,3.56-3.56V69.09a3.55,3.55,0,0,0-3.56-3.56,5.33,5.33,0,0,1-4.87-3.17,71.87,71.87,0,0,1-2.81-9.53c-.18-.73-.36-1.43-.52-2.07a7.12,7.12,0,0,0-6.89-5.34Z"/><path class="cls-1" d="M20.56,78.76a4.71,4.71,0,1,1,4.71-4.71A4.71,4.71,0,0,1,20.56,78.76Zm0-7.41a2.71,2.71,0,1,0,2.71,2.71A2.71,2.71,0,0,0,20.56,71.35Z"/><path class="cls-1" d="M56,78.76a4.71,4.71,0,1,1,4.71-4.71A4.71,4.71,0,0,1,56,78.76Zm0-7.41a2.71,2.71,0,1,0,2.71,2.71A2.71,2.71,0,0,0,56,71.35Z"/><path class="cls-1" d="M45.44,50.11a2.87,2.87,0,0,1,2.75,2.07l1.92,8v.07a1.78,1.78,0,0,1-1.72,2.26H28.7A1.78,1.78,0,0,1,27,60.27V60.2l1.92-8a2.87,2.87,0,0,1,2.75-2.07H45.44m0-2H31.67A4.86,4.86,0,0,0,27,51.68l-1.93,8.05a3.78,3.78,0,0,0,3.65,4.79H48.4a3.78,3.78,0,0,0,3.65-4.79l-1.93-8.05a4.86,4.86,0,0,0-4.68-3.57Z"/><path class="cls-1" d="M46.49,72.93H30.08a1,1,0,0,1,0-2H46.49a1,1,0,0,1,0,2Z"/><path class="cls-1" d="M43.32,77.7H33.26a1,1,0,0,1,0-2H43.32a1,1,0,1,1,0,2Z"/><path class="cls-1" d="M21.35,96.22a5.51,5.51,0,0,1-5.5-5.5V83.11h11v7.62A5.51,5.51,0,0,1,21.35,96.22Zm-3.5-11.12v5.62a3.5,3.5,0,1,0,7,0V85.11Z"/><path class="cls-1" d="M55.23,96.22a5.51,5.51,0,0,1-5.5-5.5V83.11h11v7.62A5.51,5.51,0,0,1,55.23,96.22Zm-3.5-11.12v5.62a3.5,3.5,0,1,0,7,0V85.11Z"/><path class="cls-1" d="M46.49,57.61a.5.5,0,0,1-.31-.11l-5.29-4.23a.5.5,0,1,1,.63-.78l5.29,4.23a.5.5,0,0,1-.31.89Z"/><path class="cls-1" d="M43.32,58.14A.5.5,0,0,1,43,58l-2.65-2.12a.5.5,0,1,1,.63-.78l2.65,2.12a.5.5,0,0,1-.31.89Z"/><path class="cls-1" d="M97.25,95.17H78.31V90a3.16,3.16,0,0,1,3.16-3.16H94.09A3.16,3.16,0,0,1,97.25,90Zm-16.94-2H95.25V90a1.16,1.16,0,0,0-1.16-1.16H81.47A1.16,1.16,0,0,0,80.31,90Z"/><path class="cls-1" d="M93.55,88.81H82V84.24A3.25,3.25,0,0,1,85.27,81h5a3.25,3.25,0,0,1,3.25,3.25Zm-9.53-2h7.53V84.24A1.25,1.25,0,0,0,90.3,83h-5A1.25,1.25,0,0,0,84,84.24Z"/><path class="cls-1" d="M87.78,83a1,1,0,0,1-1-1V45.47a1,1,0,1,1,2,0V82A1,1,0,0,1,87.78,83Z"/><path class="cls-1" d="M101.75,46.47H73.81V20.12h27.94Zm-25.94-2H99.75V22.12H75.81Z"/><path class="cls-1" d="M85.13,40.64a1,1,0,0,1-1-1V26.08l.85-.13c.15,0,3.81-.56,6,1.29a4.52,4.52,0,0,1,1.53,3.6A4.8,4.8,0,0,1,91,34.53a7.84,7.84,0,0,1-4.84,1.72v3.4A1,1,0,0,1,85.13,40.64Zm1-12.78v6.39a5.78,5.78,0,0,0,3.48-1.18,2.85,2.85,0,0,0,.87-2.21,2.58,2.58,0,0,0-.83-2.09A5.53,5.53,0,0,0,86.13,27.86Z"/></g></svg>