<?xml version="1.0" encoding="UTF-8" standalone="no"?>
<svg
   xmlns:dc="http://purl.org/dc/elements/1.1/"
   xmlns:cc="http://creativecommons.org/ns#"
   xmlns:rdf="http://www.w3.org/1999/02/22-rdf-syntax-ns#"
   xmlns:svg="http://www.w3.org/2000/svg"
   xmlns="http://www.w3.org/2000/svg"
   xmlns:sodipodi="http://sodipodi.sourceforge.net/DTD/sodipodi-0.dtd"
   xmlns:inkscape="http://www.inkscape.org/namespaces/inkscape"
   viewBox="0 0 112 112"
   version="1.1"
   id="svg5243"
   sodipodi:docname="music.svg"
   inkscape:version="0.92.1 r15371">
  <metadata
     id="metadata5247">
    <rdf:RDF>
      <cc:Work
         rdf:about="">
        <dc:format>image/svg+xml</dc:format>
        <dc:type
           rdf:resource="http://purl.org/dc/dcmitype/StillImage" />
        <dc:title>kids</dc:title>
      </cc:Work>
    </rdf:RDF>
  </metadata>
  <sodipodi:namedview
     pagecolor="#ffffff"
     bordercolor="#666666"
     borderopacity="1"
     objecttolerance="10"
     gridtolerance="10"
     guidetolerance="10"
     inkscape:pageopacity="0"
     inkscape:pageshadow="2"
     inkscape:window-width="1920"
     inkscape:window-height="1018"
     id="namedview5245"
     showgrid="false"
     inkscape:zoom="2.1071429"
     inkscape:cx="-21.118644"
     inkscape:cy="56"
     inkscape:window-x="1358"
     inkscape:window-y="-8"
     inkscape:window-maximized="1"
     inkscape:current-layer="svg5243" />
  <defs
     id="defs5230">
    <style
       id="style5228">.cls-1{fill:#bfa982;}</style>
  </defs>
  <title
     id="title5232">kids</title>
  <g
     id="Слой_7"
     data-name="Слой 7"
     style="fill:#4b81d3;fill-opacity:1">
    <path
       class="cls-1"
       d="M35.38,79.75c-5.17,0-9.37-3.31-9.37-7.37S30.21,65,35.38,65s9.38,3.31,9.38,7.38S40.54,79.75,35.38,79.75Zm0-12.75C31.31,67,28,69.41,28,72.38s3.31,5.38,7.38,5.38,7.38-2.41,7.38-5.37S39.44,67,35.38,67Z"
       id="path5234"
       style="fill:#4b81d3;fill-opacity:1" />
    <path
       class="cls-1"
       d="M74.36,71.75c-5.17,0-9.37-3.31-9.37-7.37S69.19,57,74.36,57s9.38,3.31,9.38,7.38S79.53,71.75,74.36,71.75Zm0-12.75C70.3,59,67,61.41,67,64.38s3.31,5.38,7.38,5.38,7.38-2.41,7.38-5.37S78.43,59,74.36,59Z"
       id="path5236"
       style="fill:#4b81d3;fill-opacity:1" />
    <path
       class="cls-1"
       d="M43.75,73.38a1,1,0,0,1-1-1V37.25a1,1,0,0,1,.67-.94l39-13.5a1,1,0,0,1,1.33.94V64.38a1,1,0,0,1-2,0V25.15L44.75,38V72.38A1,1,0,0,1,43.75,73.38Z"
       id="path5238"
       style="fill:#4b81d3;fill-opacity:1" />
    <path
       class="cls-1"
       d="M43.75,47.5a1,1,0,0,1-.29-2l39-12A1,1,0,1,1,83,35.46l-39,12A1,1,0,0,1,43.75,47.5Z"
       id="path5240"
       style="fill:#4b81d3;fill-opacity:1" />
  </g>
</svg>
