<?xml version="1.0" encoding="UTF-8" standalone="no"?>
<svg
   xmlns:dc="http://purl.org/dc/elements/1.1/"
   xmlns:cc="http://creativecommons.org/ns#"
   xmlns:rdf="http://www.w3.org/1999/02/22-rdf-syntax-ns#"
   xmlns:svg="http://www.w3.org/2000/svg"
   xmlns="http://www.w3.org/2000/svg"
   xmlns:sodipodi="http://sodipodi.sourceforge.net/DTD/sodipodi-0.dtd"
   xmlns:inkscape="http://www.inkscape.org/namespaces/inkscape"
   viewBox="0 0 112 112"
   version="1.1"
   id="svg5846"
   sodipodi:docname="online.svg"
   inkscape:version="0.92.1 r15371">
  <metadata
     id="metadata5850">
    <rdf:RDF>
      <cc:Work
         rdf:about="">
        <dc:format>image/svg+xml</dc:format>
        <dc:type
           rdf:resource="http://purl.org/dc/dcmitype/StillImage" />
        <dc:title>kids</dc:title>
      </cc:Work>
    </rdf:RDF>
  </metadata>
  <sodipodi:namedview
     pagecolor="#ffffff"
     bordercolor="#666666"
     borderopacity="1"
     objecttolerance="10"
     gridtolerance="10"
     guidetolerance="10"
     inkscape:pageopacity="0"
     inkscape:pageshadow="2"
     inkscape:window-width="1920"
     inkscape:window-height="1018"
     id="namedview5848"
     showgrid="false"
     inkscape:zoom="2.1071429"
     inkscape:cx="-21.118644"
     inkscape:cy="56"
     inkscape:window-x="1358"
     inkscape:window-y="-8"
     inkscape:window-maximized="1"
     inkscape:current-layer="svg5846" />
  <defs
     id="defs5815">
    <style
       id="style5813">.cls-1{fill:#bfa982;}</style>
  </defs>
  <title
     id="title5817">kids</title>
  <g
     id="Слой_14"
     data-name="Слой 14"
     style="fill:#4b81d3;fill-opacity:1">
    <path
       class="cls-1"
       d="M83.92,77.58H63.25a1,1,0,0,1-1-1V60.77a3.68,3.68,0,0,0-3.68-3.68H40.65a1,1,0,0,1-1-1V44.88a6.51,6.51,0,0,1,6.5-6.5H83.92a6.51,6.51,0,0,1,6.5,6.5v7a1,1,0,0,1-1,1h-9A3.21,3.21,0,0,0,77.25,56v3.87a3.2,3.2,0,0,0,3.2,3.2h9a1,1,0,0,1,1,1v7A6.51,6.51,0,0,1,83.92,77.58Zm-19.67-2H83.92a4.5,4.5,0,0,0,4.5-4.5v-6h-8a5.21,5.21,0,0,1-5.2-5.2V56a5.21,5.21,0,0,1,5.2-5.21h8v-6a4.5,4.5,0,0,0-4.5-4.5H46.15a4.5,4.5,0,0,0-4.5,4.5V55.08H58.58a5.69,5.69,0,0,1,5.68,5.68Z"
       id="path5819"
       style="fill:#4b81d3;fill-opacity:1" />
    <path
       class="cls-1"
       d="M92,65.12H80.46a5.21,5.21,0,0,1-5.2-5.2V56a5.21,5.21,0,0,1,5.2-5.21H92A5.22,5.22,0,0,1,97.19,56v3.87A5.21,5.21,0,0,1,92,65.12ZM80.46,52.83A3.21,3.21,0,0,0,77.25,56v3.87a3.2,3.2,0,0,0,3.2,3.2H92a3.21,3.21,0,0,0,3.21-3.2V56A3.21,3.21,0,0,0,92,52.83Z"
       id="path5821"
       style="fill:#4b81d3;fill-opacity:1" />
    <path
       class="cls-1"
       d="M80,40.37a1,1,0,0,1-.94-.66l-3.4-9.4L70.86,32l0,0-24,8.33a1,1,0,0,1-.91-1.76l20.83-15a1,1,0,0,1,1.49.38L71,29.8l4.9-1.7a1,1,0,0,1,1.27.6L80.93,39A1,1,0,0,1,80,40.37ZM67,25.92,52.69,36.17l16.43-5.71Z"
       id="path5823"
       style="fill:#4b81d3;fill-opacity:1" />
    <path
       class="cls-1"
       d="M58.58,88.58H20.48a5.69,5.69,0,0,1-5.68-5.68V60.77a5.69,5.69,0,0,1,5.68-5.68H58.58a5.69,5.69,0,0,1,5.68,5.68V82.9A5.69,5.69,0,0,1,58.58,88.58ZM20.48,57.08a3.68,3.68,0,0,0-3.68,3.68V82.9a3.68,3.68,0,0,0,3.68,3.68H58.58a3.68,3.68,0,0,0,3.68-3.68V60.77a3.68,3.68,0,0,0-3.68-3.68Z"
       id="path5825"
       style="fill:#4b81d3;fill-opacity:1" />
    <path
       class="cls-1"
       d="M63.25,71.83H15.81a1,1,0,0,1-1-1V65.25a1,1,0,0,1,1-1H63.25a1,1,0,0,1,1,1v5.59A1,1,0,0,1,63.25,71.83Zm-46.45-2H62.25V66.25H16.81Z"
       id="path5827"
       style="fill:#4b81d3;fill-opacity:1" />
    <path
       class="cls-1"
       d="M26.14,76.13H19.81a.5.5,0,0,1,0-1h6.34a.5.5,0,0,1,0,1Z"
       id="path5829"
       style="fill:#4b81d3;fill-opacity:1" />
    <path
       class="cls-1"
       d="M37.18,76.13H30.84a.5.5,0,0,1,0-1h6.34a.5.5,0,0,1,0,1Z"
       id="path5831"
       style="fill:#4b81d3;fill-opacity:1" />
    <path
       class="cls-1"
       d="M48.22,76.13H41.88a.5.5,0,0,1,0-1h6.34a.5.5,0,0,1,0,1Z"
       id="path5833"
       style="fill:#4b81d3;fill-opacity:1" />
    <path
       class="cls-1"
       d="M59.25,76.13H52.92a.5.5,0,0,1,0-1h6.34a.5.5,0,0,1,0,1Z"
       id="path5835"
       style="fill:#4b81d3;fill-opacity:1" />
    <path
       class="cls-1"
       d="M23.14,82.79H19.81a.5.5,0,0,1,0-1h3.34a.5.5,0,0,1,0,1Z"
       id="path5837"
       style="fill:#4b81d3;fill-opacity:1" />
    <path
       class="cls-1"
       d="M29.48,82.79H26.14a.5.5,0,1,1,0-1h3.34a.5.5,0,1,1,0,1Z"
       id="path5839"
       style="fill:#4b81d3;fill-opacity:1" />
    <path
       class="cls-1"
       d="M59.25,82.79H45a.5.5,0,0,1,0-1H59.25a.5.5,0,0,1,0,1Z"
       id="path5841"
       style="fill:#4b81d3;fill-opacity:1" />
    <path
       class="cls-1"
       d="M90.6,60a2,2,0,1,1,2-2A2,2,0,0,1,90.6,60Zm0-2,0,0A0,0,0,0,0,90.6,58Z"
       id="path5843"
       style="fill:#4b81d3;fill-opacity:1" />
  </g>
</svg>
