<svg id="Layer_1" data-name="Layer 1" xmlns="http://www.w3.org/2000/svg" viewBox="0 0 85 85"><defs><style>.cls-1,.cls-2{fill:#fff}.cls-1{opacity:.4}</style></defs><title>Монтажная область 1 копия 6</title><path class="cls-1" d="M33.21 59.22l-20.7 9.6a6.3 6.3 0 0 0 4.3 1l17.3-2.6L48 77.92a6 6 0 0 0 4.4 1.2l-13.2-18.3a4.84 4.84 0 0 0-5.99-1.6zM56 48.62a3.06 3.06 0 0 0-1 5.3c1.4 1.2 3 2.5 4.4 3.7v-.2l15.3-10.2a6 6 0 0 0 2.7-5zm-33.6-2a3.39 3.39 0 0 0 2.6-5.7L8.81 23.72a5.9 5.9 0 0 0-.5 6.4l8.5 16.3zm27.01-12.2l-.9-.3a5.81 5.81 0 0 0-2.6-.1 6.08 6.08 0 0 1-3-.1 5.8 5.8 0 0 1-2.8-1.4 6.8 6.8 0 0 0-1.7-.9 15.81 15.81 0 0 0-3.1 21.3c.5-2.3.7-7.6 4.4-6.6 4.8 1.3-.8 8.8.6 9.1 5.4 1.4 11-7.1 12.4-11.6s.7-7.9-3.3-9.4z"/><path class="cls-2" d="M39.31 20.52c.1 0 .3-.1.3-.2l6.8-8a1.76 1.76 0 0 1 1.9-.6 2 2 0 0 1 1.4 1.5l.9 4.3a.45.45 0 0 0 .9-.1l-.9-4.3a2.79 2.79 0 0 0-2.1-2.2 2.74 2.74 0 0 0-2.8.9l-6.8 8a.38.38 0 0 0 .1.6c.1 0 .2.1.3.1zm-17.9 5.2l-6.1-.8a4 4 0 0 0-3.1 1 .48.48 0 0 0 0 .7.52.52 0 0 0 .4.2.37.37 0 0 0 .3-.1 2.58 2.58 0 0 1 2.2-.7l6.1.8a.68.68 0 0 0 .6-.4c.1-.2-.1-.7-.4-.7zm-3.9 40a2.6 2.6 0 0 1-2.6-1 2.84 2.84 0 0 1-.4-2.8c.1-.3 0-.5-.3-.7s-.5 0-.7.3a3.73 3.73 0 0 0 .5 3.8 3.84 3.84 0 0 0 3 1.5h.6a.44.44 0 0 0 .4-.6c.1-.3-.2-.5-.5-.5zm36.7-1.6a.47.47 0 0 0-.5.5l-.4 7.5a1.92 1.92 0 0 1-1.1 1.5 1.68 1.68 0 0 1-1.8-.2.5.5 0 1 0-.6.8 2.72 2.72 0 0 0 1.7.6 3.59 3.59 0 0 0 1.1-.2 2.73 2.73 0 0 0 1.7-2.3l.4-7.7a.47.47 0 0 0-.5-.5z"/><path class="cls-2" d="M78.81 41.42a7.46 7.46 0 0 0-4.7-6.2l-15.2-5.9-3.7-17.1a7.45 7.45 0 0 0-5.5-5.7 7.53 7.53 0 0 0-7.5 2.3L30.71 22l-16.1-2.1a7.33 7.33 0 0 0-7.1 3.1 7.55 7.55 0 0 0-.5 7.8l8.2 15.6L9 61a7.28 7.28 0 0 0 1 7.5 7.32 7.32 0 0 0 7 2.8l16.7-2.5L47 79.12a7.78 7.78 0 0 0 4.6 1.6 8 8 0 0 0 3-.6 7.55 7.55 0 0 0 4.5-6.1l1.7-15.7 14.7-9.7a7.94 7.94 0 0 0 3.31-7.2zm-5 4.6l-15.9 10.5-1.8 17.1a4.72 4.72 0 0 1-2.7 3.7 4.56 4.56 0 0 1-4.5-.6l-14.4-11.1-17.9 2.7a4.51 4.51 0 0 1-4.8-6.2l6.7-15.8-8.9-16.9a4.44 4.44 0 0 1 .3-4.7 4.55 4.55 0 0 1 4.3-1.9l17.7 2.3 12.6-14.4a4.51 4.51 0 0 1 7.8 2l4 18.7L73 37.92a4.21 4.21 0 0 1 2.8 3.7A4.41 4.41 0 0 1 73.81 46z"/><path class="cls-2" d="M50 33a2.28 2.28 0 0 0-1.1-.3 9.63 9.63 0 0 0-2.8-.2h-.2c-.3 0-.5.1-.7.1-.4.1-.6.1-1.7-.2a4.3 4.3 0 0 1-1.9-.8 1.76 1.76 0 0 1-.5-.4l-.1-.1a7.55 7.55 0 0 0-2.7-1.3 4.25 4.25 0 0 0-1.1-.2c-3.4-.5-7.8.5-9.2 7.7-1.1 5.6.2 16.3 6.5 18a2.2 2.2 0 0 0 1.4-.2c.9-.6 1.1-1.6 1.3-3.3.2-1.3.6-3.6 1.4-4.1.1-.1.3-.2.9-.1s.7.4.7.5c.4.9-.4 3-.8 4.3-.6 1.6-1 2.6-.5 3.5a1.44 1.44 0 0 0 1.1.9 8.75 8.75 0 0 0 1.6.2c5.9 0 11.1-8.2 12.7-12.8 2.21-6.98-1.09-9.98-4.3-11.2zm1.4 10.1c-1.3 3.9-5.6 10.4-9.5 10.8.1-.2.1-.4.2-.6.7-2 1.7-4.7.7-6.7a4 4 0 0 0-2.7-2H39a4 4 0 0 0-2.1.6c-1.9 1.3-2.4 4.1-2.8 6.1 0 .2-.1.4-.1.6-3.3-2.2-4.1-10-3.3-14 1-5.3 3.7-5.6 5.8-5.3.3 0 .5.1.8.1a6.63 6.63 0 0 1 1.9.9l.1.1c.1.1.3.2.4.3a7.93 7.93 0 0 0 2.9 1.3 6.58 6.58 0 0 0 3 .2c.1 0 .3-.1.4-.1h.3a5.46 5.46 0 0 1 1.8.1 1.85 1.85 0 0 0 .7.2c2.31.92 4.31 2.42 2.61 7.42z"/></svg>