<svg id="Layer_1" xmlns="http://www.w3.org/2000/svg" viewBox="0 0 85 85"><style>.st0{fill:#FFF}.st1{fill:#ede1c7}.st2{fill:#4c81d2}</style><path class="st0" d="M47.9 71.2c-.8 0-1.1-.2-1.3-.4-1-1.1-.4-4.6 0-7.4.6-3.8 1.1-7.4-.6-9.6-.7-.9-1.8-1.4-3.1-1.6h-.2c-1.3.1-2.3.6-3.1 1.6-1.7 2.1-1.1 5.8-.6 9.6.4 2.8 1 6.3 0 7.4-.2.2-.5.4-1.3.4-7.2 0-12.9-9-15.7-14.4-4-7.9-6.9-17.8-7-24.7-.2-6.4 3.1-17 12.5-18.1.8-.1 1.5-.1 2.2-.1 2.4 0 4.1.6 5.9 1.1 2 .6 4 1.3 7.1 1.4 3.1 0 5.1-.7 7.1-1.4 1.8-.6 3.5-1.1 5.9-1.1.7 0 1.4 0 2.2.1 9.4 1.1 12.7 11.7 12.5 18.1-.2 6.8-3.1 16.7-7.3 24.7-4.6 9.1-10.2 14.4-15.2 14.4z"/><path class="st1" d="M54.3 13.9c-1.7.2-3 .6-4.4 1.1-2 .6-4 1.3-7.1 1.4-3.1 0-5.1-.7-7.1-1.4-1.4-.5-2.8-.9-4.4-1.1-5.7 3.3-9.5 10-9.5 21.8 0 14.2 5.4 28.7 13 34.9 1 .3 1.9.5 3 .5.8 0 1.1-.2 1.3-.4 1-1.1.4-4.6 0-7.4-.6-3.8-1.1-7.4.6-9.6.7-.9 1.8-1.4 3.1-1.6h.2c1.3.1 2.3.6 3.1 1.6 1.7 2.1 1.1 5.8.6 9.6-.4 2.8-1 6.3 0 7.4.2.2.5.4 1.3.4 1 0 2-.2 3.1-.6 7.5-6.3 12.8-20.7 12.8-34.8-.1-11.8-3.9-18.5-9.6-21.8z"/><path class="st2" d="M34.3 20.7c1.6.6 4.9 1.5 8.1 1.6h.3c3.2 0 6.2-.8 7.8-1.6.3-.1.4-.4.3-.7-.1-.3-.4-.4-.7-.3-1.7.8-4.8 1.5-7.7 1.5-3.1-.1-6.2-1-7.8-1.5-.3-.1-.5.1-.6.3-.1.3.1.6.3.7z"/><path class="st2" d="M73.8 23.9c-.4-.4-1-.4-1.4 0l-.4.3-.9.9c-1.7-5.9-5.7-11.7-12.9-12.6-.9-.1-1.7-.2-2.4-.2-5.3 0-7.4 2.4-13 2.5-5.6-.1-7.7-2.5-13-2.5-.7 0-1.5 0-2.4.2-7.5.9-11.6 7.1-13.1 13.2-.7-.7-1.3-1.3-1.7-1.8-.4-.4-1-.5-1.4-.1-.4.4-.6 1-.2 1.4.6.7 1.6 1.7 2.8 2.7-.2 1.4-.3 2.8-.3 4.1.3 13.6 10.8 40.6 24.2 40.6 8.3 0-2.4-18.4 5-19 7.5.6-3.2 19 5 19 12.6 0 23.9-27 24.2-40.6 0-1.5-.1-3.1-.4-4.8l1.8-1.8.3-.2c.6-.3.6-.9.2-1.3zm-46-8.5c.7-.1 1.4-.1 2-.1 2.2 0 3.7.3 5.4.9 2 .7 4.2 1.3 7.5 1.3s5.5-.6 7.5-1.3c1.7-.6 3.2-1 5.4-1 .6 0 1.3.1 2.1.2 6.4.8 9.6 6.5 10.7 11.9-5.1 3.9-12.1 6-17.1 6.9v-.6c0-1.1-.6-2.1-1.7-2.1h-14c-1.1 0-2.3 1-2.3 2.1v.8c-8-1.2-13-4-16.6-6.5 1.2-5.5 4.5-11.7 11.1-12.5zM69.1 32c-.3 13.2-11.3 37.6-21.2 37.6h-.2c-.4-1 .1-4.3.4-6.1.6-4.2 1.2-8.1-.9-10.7-.7-.9-2-1.9-4.1-2.1h-.4c-2.2.2-3.4 1.2-4.1 2.1-2.1 2.7-1.5 6.6-.9 10.7.3 1.8.8 5.1.4 6.1h-.2c-4.7 0-9.9-4.9-14.3-13.6-3.9-7.7-6.7-17.4-6.9-24.1 0-.6-.1-1.3 0-2 3.8 2.6 8.9 5.2 16.9 6.3v1.9c0 1.1 1.2 2.2 2.3 2.2h14c1.1 0 1.7-1.1 1.7-2.2V36c6-.9 12.2-2.9 17.4-6.7 0 1.1.1 2 .1 2.7z"/></svg>