<svg id="Layer_1" data-name="Layer 1" xmlns="http://www.w3.org/2000/svg" viewBox="0 0 85 85"><defs><style>.cls-1,.cls-3{fill:#fff}.cls-1{opacity:.4}.cls-2{fill:#4c81d2}</style></defs><title>Монтажная область 1 копия 3</title><path class="cls-1" d="M56.83 9.95h-.6a14.91 14.91 0 0 0-5.4.9 21.08 21.08 0 0 1-7.5 1.3 21.08 21.08 0 0 1-7.5-1.3 14.9 14.9 0 0 0-5.4-.9h-.6c-4.5 3.7-7.4 10.1-7.4 20.4 0 2.4.2 4.7.4 7.1l4.9-3.2a1 1 0 0 1 1.3.2l10.2 12.7a4.2 4.2 0 0 1 1.8-1.3l19.5-16.7a1 1 0 0 1 1.4 0l2.3 2.3v-1.2c0-10.3-2.9-16.7-7.4-20.3z"/><path class="cls-2" d="M39.13 47.15l.1.2 1.7-1.5a4.2 4.2 0 0 0-1.8 1.3z"/><path class="cls-1" d="M71.23 29.95l-3.6 3.6a1 1 0 0 1-1.4 0l-4.4-4.4a1 1 0 0 0-1.4 0l-2 1.7a59.05 59.05 0 0 1 1.7 13.7c0 16.3-7.8 27-19.4 32 .8 0 1.7.1 2.5.1a41.79 41.79 0 0 0 8-.7c12.6-4.9 21.3-16 21.3-33.5a59.66 59.66 0 0 0-1.3-12.5z"/><path class="cls-3" d="M35.73 16.25a28 28 0 0 0 8.1 1.6h.3a19 19 0 0 0 7.8-1.6.54.54 0 0 0-.4-1 20.22 20.22 0 0 1-7.7 1.5 30.7 30.7 0 0 1-7.8-1.5.49.49 0 0 0-.6.3.67.67 0 0 0 .3.7zM13 41.15a.47.47 0 0 0-.5.5 46.51 46.51 0 0 0 .5 6.6c0 .2.3.4.5.4h.1A.44.44 0 0 0 14 48a43.7 43.7 0 0 1-.5-6.4.64.64 0 0 0-.5-.45zm31.6 30.5c-14.3 0-25-6.6-29.2-18a.47.47 0 0 0-.9.3c4.3 11.7 15.5 18.7 30.1 18.7a.5.5 0 1 0 0-1z"/><path class="cls-3" d="M76.33 27.75a2.62 2.62 0 0 0-1.8-1.6 2.33 2.33 0 0 0-2 .4c.1-7.4-3.7-18.3-13.9-19.5a23.2 23.2 0 0 0-2.4-.2c-5.3 0-7.4 2.4-13 2.5-5.6-.1-7.7-2.5-13-2.5a10.57 10.57 0 0 0-2.4.2c-10.2 1.2-14 12.2-13.8 19.6 0 1 .1 2.1.2 3.2l-.5-.6a2.72 2.72 0 0 0-2.4-.9A2.52 2.52 0 0 0 9.43 30a46.87 46.87 0 0 0-2.2 13.4c0 21.1 14.1 34.7 36 34.7s36-13.6 36-34.7a48.53 48.53 0 0 0-2.9-15.65zM28.23 10a14.08 14.08 0 0 1 2-.1 14.91 14.91 0 0 1 5.4.9 21.08 21.08 0 0 0 7.5 1.3 21.08 21.08 0 0 0 7.5-1.3 14.9 14.9 0 0 1 5.4-.9 18.32 18.32 0 0 1 2.1.2c8.4 1 11.4 10.7 11.2 16.6a18.16 18.16 0 0 1-.3 3.2l-2.3 2.3-4-4a2.39 2.39 0 0 0-3.4-.1l-20 17.1-9.4-11.7a2.48 2.48 0 0 0-3.3-.5l-6.5 4.2L18 34.45a48.57 48.57 0 0 1-1.1-7.8C16.83 20.75 19.73 11 28.23 10zm15 65.2c-24.3 0-33-16.4-33-31.7A40.48 40.48 0 0 1 12 31.95l6.2 7.5a2.48 2.48 0 0 0 3.3.5l6.5-4.2L37.23 47l-2.4 2.1a1.45 1.45 0 0 0-.1 2.1 1.61 1.61 0 0 0 1.1.5 1.28 1.28 0 0 0 1-.4l3.4-3 20.9-17.8 4 4a2.42 2.42 0 0 0 3.5 0l5.1-5.1a42.74 42.74 0 0 1 2.5 14c0 15.45-8.6 31.85-33 31.85z"/></svg>