<svg id="Layer_1" data-name="Layer 1" xmlns="http://www.w3.org/2000/svg" viewBox="0 0 85 85"><defs><style>.cls-1,.cls-2{fill:#fff}.cls-1{opacity:.4}</style></defs><title>Монтажная область 1 копия</title><path class="cls-1" d="M75 45.1h-9.9c-.8 2-1.6 3.5-2.5 5.3-4.8 9.1-10.4 14.3-15.4 14.3a1.58 1.58 0 0 1-1.3-.5c-1-1.1-.4-4.6 0-7.4.6-3.8 1.1-7.4-.6-9.6a4.68 4.68 0 0 0-3.1-1.6H42a4.39 4.39 0 0 0-3.1 1.5c-1.7 2.1-1.1 5.8-.6 9.6.4 2.8 1 6.3 0 7.4a1.62 1.62 0 0 1-1.3.4c-7.2 0-12.9-8.8-15.7-14.2-.8-1.6-1.6-3.2-2.4-5.2h-5.8a2 2 0 0 0-2.2 2.3V74c0 1.7 1 3.1 2.7 3.1H75a3 3 0 0 0 2.9-3.1V47.9a2.7 2.7 0 0 0-2.9-2.8z"/><path class="cls-1" d="M53.57 7.3a18.89 18.89 0 0 0-4.4 1.1 24.7 24.7 0 0 1-7.1 1.4A19.39 19.39 0 0 1 35 8.4a20.25 20.25 0 0 0-4.4-1.1c-5.7 3.3-9.5 10-9.5 21.8 0 14.2 5.4 28.7 13 34.9a9.93 9.93 0 0 0 3 .5 1.62 1.62 0 0 0 1.3-.4c1-1.1.4-4.6 0-7.4-.6-3.8-1.1-7.4.6-9.6a4.68 4.68 0 0 1 3.1-1.6h.2a4.13 4.13 0 0 1 3.1 1.6c1.7 2.1 1.1 5.8.6 9.6-.4 2.8-1 6.3 0 7.4a1.62 1.62 0 0 0 1.3.4 9 9 0 0 0 3.1-.6c7.5-6.3 12.8-20.7 12.8-34.8-.13-11.8-3.93-18.5-9.63-21.8z"/><path class="cls-2" d="M75.87 39.1h-7.1a51.12 51.12 0 0 0 2.6-13.6c.1-7.4-3.7-18.4-13.9-19.6a23.2 23.2 0 0 0-2.4-.2c-5.3 0-7.4 2.4-13 2.5-5.6-.1-7.7-2.5-13-2.5a10.57 10.57 0 0 0-2.4.2c-10.2 1.2-14 12.2-13.8 19.6a54.83 54.83 0 0 0 2.5 13.6h-6.5a5 5 0 0 0-5 5v30a5 5 0 0 0 5 5h67a5 5 0 0 0 5-5v-30a5 5 0 0 0-5-5zM27.07 8.9a14.08 14.08 0 0 1 2-.1 14.85 14.85 0 0 1 5.4 1A20.85 20.85 0 0 0 42 11.2a20.85 20.85 0 0 0 7.5-1.4 14.85 14.85 0 0 1 5.4-1 16.23 16.23 0 0 1 2.1.1c8.4 1 11.4 10.7 11.2 16.6C68 38.6 57 63.1 47.17 63.1H47c-.4-1 .1-4.3.4-6.1.6-4.2 1.2-8.1-.9-10.7a5.73 5.73 0 0 0-4.1-2.1h-.2l-.3-.1a5.52 5.52 0 0 0-4.1 2.1c-2.1 2.7-1.5 6.6-.9 10.7.3 1.8.8 5.1.4 6.1h-.2c-4.7 0-9.9-4.9-14.3-13.6-3.9-7.7-6.7-17.4-6.9-24.1-.23-5.7 2.67-15.4 11.17-16.4zm50.8 65.2a2 2 0 0 1-2 2h-67a2 2 0 0 1-2-2v-30a2 2 0 0 1 2-2h7.4c4.2 12 11.8 24 20.8 24 8.3 0-2.4-18.4 5-19 7.5.6-3.2 19 5 19 8.4 0 16.2-12 20.6-24h8.2a2 2 0 0 1 2 2z"/><path class="cls-2" d="M34.57 15.1a28 28 0 0 0 8.1 1.6H43a19 19 0 0 0 7.8-1.6.54.54 0 0 0-.4-1 20.22 20.22 0 0 1-7.7 1.5 30.7 30.7 0 0 1-7.8-1.5.49.49 0 0 0-.6.3.67.67 0 0 0 .27.7zm-5.8-1.2l3 .4h.1c.2 0 .5-.2.5-.4a.68.68 0 0 0-.4-.6l-3-.4a.68.68 0 0 0-.6.4c0 .3.2.6.4.6zm1.9 58.2h-15.6a.47.47 0 0 0-.5.5.54.54 0 0 0 .5.5h15.5a.47.47 0 0 0 .5-.5.46.46 0 0 0-.4-.5zm42.7-12a.47.47 0 0 0-.5.5v10.9c0 .3-.1.6-.4.6h-38.1a.5.5 0 1 0 0 1h38.1a1.55 1.55 0 0 0 1.4-1.6V60.6a.47.47 0 0 0-.5-.5zm0-7a.47.47 0 0 0-.5.5v1.7a.5.5 0 0 0 1 0v-1.7a.47.47 0 0 0-.5-.5z"/></svg>