<svg id="Layer_1" data-name="Layer 1" xmlns="http://www.w3.org/2000/svg" viewBox="0 0 85 85"><defs><style>.cls-1,.cls-2{fill:#fff}.cls-2{opacity:.4}</style></defs><title>Монтажная область 1</title><path class="cls-1" d="M18.14 60.8a.61.61 0 0 0 0 1.2l3-.3-.14-3.1a.47.47 0 0 0-.5-.5.54.54 0 0 0-.5.5l.1 1.4c-2.9-2.6-5.7-9-6.3-14.2l1.2 1.1a.49.49 0 0 0 .7-.7L13.24 44 11 46.5a.48.48 0 0 0 0 .7.37.37 0 0 0 .3.1.76.76 0 0 0 .4-.2l1.1-1.3c.6 5.5 3.6 12 6.6 14.9z"/><path class="cls-1" d="M47.64 10c-16.3 0-29.7 13-30 29h-12a1.5 1.5 0 1 0 0 3h12.1a29.66 29.66 0 0 0 8.6 18.3l-12.2 12.2a1.45 1.45 0 0 0 0 2.1 1.5 1.5 0 0 0 1.1.4 2.1 2.1 0 0 0 1.1-.4l12.3-12.3a30.18 30.18 0 0 0 19.1 6.7c16.5 0 30-13.2 30-29.5S64.24 10 47.64 10zm-19.5 11.2l6.5 6.3a15.87 15.87 0 0 0-4.9 11.4h-9a25.91 25.91 0 0 1 7.4-17.7zM48 45.6V54h-.4a14.75 14.75 0 0 1-15-14.5c0-8 6.8-14.5 15-14.5h.4v8c-4 .3-5.8 3-5.8 6.3s1.8 6 5.8 6.3zM47.64 66c-14 0-25.6-11-26.9-24h9.1a18.09 18.09 0 0 0 30.1 10.2l6.5 6.3a26.79 26.79 0 0 1-18.8 7.5zM49 33v-8c7 .5 14 6.8 14 14.5S56 53.4 49 54v-8.3A6.37 6.37 0 0 0 49 33zm18.1 24.8l-6.4-6.3a16.94 16.94 0 0 0 4.9-12c0-9.6-8.1-17.5-18-17.5a17.84 17.84 0 0 0-12.3 4.8l-6.5-6.3A27.41 27.41 0 0 1 47.64 13c14.9 0 27 11.9 27 26.5a26 26 0 0 1-7.5 18.3z"/><path class="cls-1" d="M65.94 67.2a32.62 32.62 0 0 1-18.2 5.4 33.36 33.36 0 0 1-18.4-5.5c-.3-.1-.6-.1-.7.2a.49.49 0 0 0 .1.7 34.38 34.38 0 0 0 18.9 5.7 34 34 0 0 0 18.8-5.6.49.49 0 0 0 .1-.7.4.4 0 0 0-.6-.2zm13.5-16.4a.42.42 0 0 0-.6.3 33.38 33.38 0 0 1-9.4 13.5.48.48 0 0 0 0 .7.52.52 0 0 0 .4.2.37.37 0 0 0 .3-.1 34.17 34.17 0 0 0 9.6-13.9.61.61 0 0 0-.3-.7zm1.4-19.5a27.79 27.79 0 0 0-1.2-3.8.47.47 0 0 0-.9.3c.4 1.2.8 2.4 1.1 3.6a.66.66 0 0 0 .5.4h.1c.3 0 .5-.2.4-.5z"/><path class="cls-2" d="M33 42.5A14.76 14.76 0 0 0 47.64 54H48v-8.4c-4-.3-5.8-3-5.8-6.3s1.8-6 5.8-6.3v-8h-.4a15 15 0 0 0-14.7 11.5 15.26 15.26 0 0 0-.3 3c.14 1 .24 2 .4 3z"/><path class="cls-2" d="M29.74 39a15.69 15.69 0 0 1 4-10.4l-6.4-6.4a26.24 26.24 0 0 0-6.6 16.8zm17.9 18a18.21 18.21 0 0 1-17.8-15h-9.1c1.3 13 12.9 24 26.9 24a26.83 26.83 0 0 0 17.1-6.1l-6.6-6.3a17.14 17.14 0 0 1-10.5 3.4z"/></svg>