<svg id="Layer_1" xmlns="http://www.w3.org/2000/svg" viewBox="0 0 85 85"><style>.st0{fill:none;stroke:#4c81d2;stroke-width:.8214;stroke-miterlimit:10}.st1{fill:#4c81d2}.st2{fill:#ede1c7}.st3{fill:#d2dbea}</style><path class="st1" d="M18.1 60.8c-.3 0-.5.3-.5.6s.2.6.5.6l3-.3-.1-3.1c0-.3-.2-.5-.5-.5s-.5.3-.5.5l.1 1.4c-2.9-2.6-5.7-9-6.3-14.2l1.2 1.1c.2.2.5.2.7 0 .2-.2.2-.5 0-.7L13.2 44 11 46.5c-.2.2-.2.5 0 .7.1.1.2.1.3.1.1 0 .3-.1.4-.2l1.1-1.3c.6 5.5 3.6 12 6.6 14.9l-1.3.1z"/><path class="st1" d="M47.6 10c-16.3 0-29.7 13-30 29h-12c-.8 0-1.5.7-1.5 1.5S4.8 42 5.6 42h12.1c.6 7 3.8 13.5 8.6 18.3L14.1 72.5c-.6.6-.6 1.5 0 2.1.3.3.7.4 1.1.4s.8-.2 1.1-.4l12.3-12.3c5.2 4.2 11.8 6.7 19.1 6.7 16.5 0 30-13.2 30-29.5S64.2 10 47.6 10zM28.1 21.2l6.5 6.3c-2.9 3-4.8 6.4-4.9 11.4h-9c.1-6.9 2.9-13 7.4-17.7zM48 45.6V54h-.4c-8.3 0-15-6.5-15-14.5S39.4 25 47.6 25h.4v8c-4 .3-5.8 3-5.8 6.3s1.8 6 5.8 6.3zM47.6 66c-14 0-25.6-11-26.9-24h9.1c1.2 8 8.7 15 17.8 15 4.8 0 9.1-1.9 12.3-4.8l6.5 6.3C61.6 63.2 54.9 66 47.6 66zM49 33v-8c7 .5 14 6.8 14 14.5S56 53.4 49 54v-8.3c3-.2 5.9-3 5.9-6.3 0-3.5-2.9-6.2-5.9-6.4zm18.1 24.8l-6.4-6.3c3.1-3.1 4.9-7.4 4.9-12 0-9.6-8.1-17.5-18-17.5-4.8 0-9.1 1.8-12.3 4.8l-6.5-6.3c4.9-4.6 11.5-7.5 18.8-7.5 14.9 0 27 11.9 27 26.5 0 7.1-2.8 13.5-7.5 18.3z"/><path class="st1" d="M65.9 67.2c-5.4 3.6-11.7 5.4-18.2 5.4-6.6 0-12.9-1.9-18.4-5.5-.3-.1-.6-.1-.7.2-.2.2-.1.5.1.7 5.6 3.7 12.2 5.7 18.9 5.7 6.7 0 13.2-1.9 18.8-5.6.2-.2.3-.5.1-.7-.1-.3-.4-.3-.6-.2zm13.5-16.4c-.3-.1-.5 0-.6.3-1.9 5.2-5.2 9.8-9.4 13.5-.2.2-.2.5 0 .7.1.1.2.2.4.2.1 0 .2 0 .3-.1 4.3-3.8 7.7-8.6 9.6-13.9.1-.3-.1-.6-.3-.7zm1.4-19.5c-.3-1.3-.7-2.5-1.2-3.8-.1-.3-.4-.4-.6-.3-.3.1-.4.4-.3.6.4 1.2.8 2.4 1.1 3.6.1.2.3.4.5.4h.1c.3 0 .5-.2.4-.5z"/><path class="st2" d="M33 42.5C34.4 49.1 40.4 54 47.6 54h.4v-8.4c-4-.3-5.8-3-5.8-6.3s1.8-6 5.8-6.3v-8h-.4c-7.2 0-13.2 4.9-14.7 11.5-.2 1-.3 2-.3 3 .1 1 .2 2 .4 3z"/><path class="st3" d="M29.7 39c.1-4.4 1.6-7.6 4-10.4l-6.4-6.4c-4 4.5-6.4 10.3-6.6 16.8h9zm17.9 18c-9.1 0-16.6-7-17.8-15h-9.1C22 55 33.6 66 47.6 66c6.5 0 12.5-2.3 17.1-6.1l-6.6-6.3c-2.9 2.2-6.5 3.4-10.5 3.4z"/></svg>