<svg xmlns="http://www.w3.org/2000/svg" viewBox="0 0 112 112"><defs><style>.cls-1{fill:#4270b7;}</style></defs><title>kids</title><g id="Слой_8" data-name="Слой 8"><path class="cls-1" d="M68.49,81.13H22a5.57,5.57,0,0,1-5.56-5.56V65.11A5.57,5.57,0,0,1,22,59.55a3.32,3.32,0,0,0,3-2,72.24,72.24,0,0,0,2.7-9.19c.19-.74.36-1.45.53-2.1a9.12,9.12,0,0,1,8.82-6.84H53.4a9.12,9.12,0,0,1,8.82,6.84c.17.65.34,1.35.53,2.09a72.27,72.27,0,0,0,2.7,9.2,3.33,3.33,0,0,0,3,2,5.55,5.55,0,0,1,5.56,5.56V75.57A5.57,5.57,0,0,1,68.49,81.13ZM37.14,41.43a7.12,7.12,0,0,0-6.89,5.34c-.17.64-.34,1.35-.53,2.08a71.67,71.67,0,0,1-2.81,9.51A5.32,5.32,0,0,1,22,61.55a3.57,3.57,0,0,0-3.56,3.56V75.57A3.57,3.57,0,0,0,22,79.13H68.49a3.57,3.57,0,0,0,3.56-3.56V65.11a3.55,3.55,0,0,0-3.56-3.56,5.33,5.33,0,0,1-4.87-3.17,71.72,71.72,0,0,1-2.81-9.52c-.18-.73-.36-1.44-.53-2.08a7.12,7.12,0,0,0-6.89-5.34Z"/><path class="cls-1" d="M27.53,74.78a4.71,4.71,0,1,1,4.71-4.71A4.71,4.71,0,0,1,27.53,74.78Zm0-7.41a2.71,2.71,0,1,0,2.71,2.71A2.71,2.71,0,0,0,27.53,67.37Z"/><path class="cls-1" d="M63,74.78a4.71,4.71,0,1,1,4.71-4.71A4.71,4.71,0,0,1,63,74.78Zm0-7.41a2.71,2.71,0,1,0,2.71,2.71A2.71,2.71,0,0,0,63,67.37Z"/><path class="cls-1" d="M52.42,46.14a2.87,2.87,0,0,1,2.75,2.07l1.92,8v.07a1.78,1.78,0,0,1-1.72,2.26H35.68A1.78,1.78,0,0,1,34,56.29v-.07l1.92-8a2.87,2.87,0,0,1,2.75-2.07H52.42m0-2H38.65A4.86,4.86,0,0,0,34,47.7L32,55.76a3.78,3.78,0,0,0,3.65,4.79h19.7A3.78,3.78,0,0,0,59,55.76L57.1,47.7a4.86,4.86,0,0,0-4.68-3.57Z"/><path class="cls-1" d="M53.47,69H37.06a1,1,0,0,1,0-2H53.47a1,1,0,0,1,0,2Z"/><path class="cls-1" d="M50.3,73.72H40.24a1,1,0,0,1,0-2H50.3a1,1,0,0,1,0,2Z"/><path class="cls-1" d="M28.33,92.25a5.51,5.51,0,0,1-5.5-5.5V79.13h11v7.62A5.51,5.51,0,0,1,28.33,92.25Zm-3.5-11.12v5.62a3.5,3.5,0,1,0,7,0V81.13Z"/><path class="cls-1" d="M62.21,92.25a5.51,5.51,0,0,1-5.5-5.5V79.13h11v7.62A5.51,5.51,0,0,1,62.21,92.25Zm-3.5-11.12v5.62a3.5,3.5,0,1,0,7,0V81.13Z"/><path class="cls-1" d="M53.47,53.64a.5.5,0,0,1-.31-.11l-5.29-4.23a.5.5,0,1,1,.63-.78l5.29,4.23a.5.5,0,0,1-.31.89Z"/><path class="cls-1" d="M50.29,54.17a.5.5,0,0,1-.31-.11l-2.65-2.12a.5.5,0,1,1,.63-.78l2.65,2.12a.5.5,0,0,1-.31.89Z"/><path class="cls-1" d="M92.11,41.43a6.56,6.56,0,0,1-6.55-6.55V28.33h13.1v6.55A6.56,6.56,0,0,1,92.11,41.43Zm-4.55-11.1v4.55a4.55,4.55,0,1,0,9.1,0V30.33Z"/><path class="cls-1" d="M98.73,30.33H85.48a2.71,2.71,0,1,1,0-5.42H98.73a2.71,2.71,0,1,1,0,5.42ZM85.48,26.92a.71.71,0,1,0,0,1.42H98.73a.71.71,0,0,0,0-1.42Z"/><path class="cls-1" d="M88.56,26.92a1,1,0,0,1-1-1v-6.1a1,1,0,0,1,2,0v6.1A1,1,0,0,1,88.56,26.92Z"/><path class="cls-1" d="M95.66,26.92a1,1,0,0,1-1-1v-6.1a1,1,0,0,1,2,0v6.1A1,1,0,0,1,95.66,26.92Z"/><path class="cls-1" d="M94.86,34.31h-5.5a.5.5,0,0,1,0-1h5.5a.5.5,0,1,1,0,1Z"/><path class="cls-1" d="M93.88,36.31H90.34a.5.5,0,0,1,0-1h3.53a.5.5,0,0,1,0,1Z"/><path class="cls-1" d="M89.94,74.78a9.12,9.12,0,0,1-6.11-2,8.05,8.05,0,0,0-5.58-1.73H73.06a1,1,0,0,1,0-2h5.19A10,10,0,0,1,85,71.17a7.16,7.16,0,0,0,5,1.6c3.48,0,6.9-3.29,7.79-6.25A3.77,3.77,0,0,0,96.26,62C90.81,58.35,91,47.71,91.09,42c0-.6,0-1.12,0-1.56a1,1,0,1,1,2,0c0,.45,0,1,0,1.6-.08,5-.26,15.26,4.28,18.26a5.72,5.72,0,0,1,2.28,6.82C98.52,70.81,94.36,74.78,89.94,74.78Z"/></g></svg>