<svg xmlns="http://www.w3.org/2000/svg" viewBox="0 0 112 112"><defs><style>.cls-1{fill:#6c90dc;}</style></defs><title>kids</title><g id="Слой_6" data-name="Слой 6"><path class="cls-1" d="M43.48,96.4c-19.56,0-32-5.88-32.63-6.17a1,1,0,0,1-.46-1.35l4-8a1,1,0,0,1,1.34-.45c.15.07,15.33,7.47,39,4.73L56.2,85c24.64-3.24,36.59-12.31,36.71-12.41a1,1,0,0,1,1.48.29l4.64,8a1,1,0,0,1-.33,1.35c-.16.1-16.41,10.1-42.85,13.41-.93.11-1.84.21-2.74.3C49.74,96.26,46.52,96.4,43.48,96.4ZM12.65,88.83c3.83,1.58,19.11,7.16,40.26,5.1.89-.09,1.78-.18,2.69-.3C78.21,90.82,93.2,83,96.8,81l-3.59-6.15c-3.27,2.22-15.13,9.3-36.7,12.14L55,87.19c-21.28,2.46-35.57-2.92-39.23-4.51Z"/><path class="cls-1" d="M33.91,87.21h-.12a79,79,0,0,1-9.13-1.64,1,1,0,0,1-.75-1.14L27.78,61.2a11.16,11.16,0,0,1-10.23.54c-4.14-1.66-3.27-4.44-3.23-4.56a1,1,0,0,1,.18-.33l10.61-12.6a1,1,0,0,1,.77-.36H54.29c.89-3.08,4.75-14.41,14.89-19.78C80.8,18,87.11,21.33,87.38,21.48a1,1,0,0,1,.51.75l4,30.51a1,1,0,0,1-1,1.13h-8a1,1,0,0,1-.95-.68,9.9,9.9,0,0,0-5.41-5.37,21.84,21.84,0,0,0-3.4-1.2L86.09,77.74a1,1,0,0,1-.5,1.29,83.84,83.84,0,0,1-9.4,3.64A1,1,0,0,1,75,82.2L67.07,67.78H46.6A14.55,14.55,0,0,1,41,76.22a20.27,20.27,0,0,1-4.66,2.7.6.6,0,0,0-.42.46l-1.07,7A1,1,0,0,1,33.91,87.21ZM26,83.83c2.31.53,4.67,1,7,1.26l.93-6A2.59,2.59,0,0,1,35.76,77a17.84,17.84,0,0,0,4.13-2.44,12.64,12.64,0,0,0,4.89-7.93,1,1,0,0,1,1-.88H67.66a1,1,0,0,1,.88.52l7.82,14.21c2.65-.88,5.17-1.85,7.52-2.9L70.71,45.94a1,1,0,0,1,.22-1.09c.49-.49,1.69-.91,6.41,1.11a12.18,12.18,0,0,1,6.24,5.89h6.16L86,23c-1.51-.55-6.94-1.88-15.86,2.84C59.37,31.58,56.06,45,56,45.13a1,1,0,0,1-1,.77H26.34l-10.14,12c0,.45.41,1.27,2.09,1.94,6.43,2.57,10.1-1.66,10.14-1.71a1,1,0,0,1,1.75.81ZM72,46.46Z"/><path class="cls-1" d="M42.46,58.5a13.62,13.62,0,0,1-13.6-13.6,1,1,0,0,1,1-1h25.2a1,1,0,0,1,1,1A13.63,13.63,0,0,1,44.28,58.37,12.81,12.81,0,0,1,42.46,58.5ZM30.9,45.9A11.62,11.62,0,0,0,42.46,56.5,10.86,10.86,0,0,0,44,56.39,11.63,11.63,0,0,0,54,45.9Z"/><circle class="cls-1" cx="79.6" cy="39.59" r="2.19"/><path class="cls-1" d="M65,39.43a.5.5,0,0,1-.19,0,.5.5,0,0,1-.28-.65,14.34,14.34,0,0,1,10.32-8.26.5.5,0,1,1,.18,1,13.54,13.54,0,0,0-9.57,7.65A.5.5,0,0,1,65,39.43Z"/><path class="cls-1" d="M63.68,41.58a.66.66,0,1,0,.66.66.66.66,0,0,0-.66-.66Z"/></g></svg>