<svg xmlns="http://www.w3.org/2000/svg" viewBox="0 0 112 112"><defs><style>.cls-1{fill:#6a82a8;}</style></defs><title>kids</title><g id="Слой_10" data-name="Слой 10"><path class="cls-1" d="M87.3,69.75H26.8a1,1,0,0,1-1-1V60.08a1,1,0,0,1,1-1H87.3a1,1,0,0,1,1,1v8.67A1,1,0,0,1,87.3,69.75Zm-59.5-2H86.3V61.08H27.8Z"/><path class="cls-1" d="M87.3,73.25H26.8a1,1,0,0,1-1-1v-3.5a1,1,0,0,1,1-1H87.3a1,1,0,0,1,1,1v3.5A1,1,0,0,1,87.3,73.25Zm-59.5-2H86.3v-1.5H27.8Z"/><path class="cls-1" d="M87.3,61.08H26.8a1,1,0,0,1-1-1v-3a5.42,5.42,0,0,0-2.54-4.6,1,1,0,0,1-.46-.84V44.14A10.4,10.4,0,0,1,33.19,33.75H80.9A10.41,10.41,0,0,1,91.3,44.14v7.49a1,1,0,0,1-.47.85,5.39,5.39,0,0,0-2.53,4.59v3A1,1,0,0,1,87.3,61.08Zm-59.5-2H86.3v-2a7.38,7.38,0,0,1,3-6v-7a8.4,8.4,0,0,0-8.4-8.39H33.19a8.4,8.4,0,0,0-8.39,8.39v7a7.4,7.4,0,0,1,3,6Zm62.5-7.45h0Z"/><path class="cls-1" d="M26.8,73.25H20.71a4.33,4.33,0,0,1-4.33-4.33V63.35a7.43,7.43,0,0,1,3.15-13.67,7.45,7.45,0,0,1,8.27,7.39V72.25A1,1,0,0,1,26.8,73.25ZM20.36,51.63a5.6,5.6,0,0,0-.62,0,5.43,5.43,0,0,0-1.9,10.22,1,1,0,0,1,.53.89v6.15a2.33,2.33,0,0,0,2.33,2.33H25.8V57.07a5.45,5.45,0,0,0-5.43-5.44Z"/><path class="cls-1" d="M93.38,73.25H87.3a1,1,0,0,1-1-1V57.07a7.38,7.38,0,0,1,3.47-6.29,7.28,7.28,0,0,1,4.79-1.11,7.43,7.43,0,0,1,3.15,13.67v5.57A4.33,4.33,0,0,1,93.38,73.25Zm-5.08-2h5.08a2.33,2.33,0,0,0,2.33-2.33V62.77a1,1,0,0,1,.53-.89,5.43,5.43,0,0,0-1.9-10.22,5.31,5.31,0,0,0-3.5.81,5.39,5.39,0,0,0-2.54,4.6Z"/><path class="cls-1" d="M30.3,78.38h-7a1,1,0,0,1-1-1V75.75a4.5,4.5,0,0,1,9,0v1.63A1,1,0,0,1,30.3,78.38Zm-6-2h5v-.62a2.5,2.5,0,0,0-5,0Z"/><path class="cls-1" d="M90.8,78.38h-7a1,1,0,0,1-1-1V75.75a4.5,4.5,0,0,1,9,0v1.63A1,1,0,0,1,90.8,78.38Zm-6-2h5v-.62a2.5,2.5,0,0,0-5,0Z"/><circle class="cls-1" cx="49.05" cy="42.54" r="1.27"/><circle class="cls-1" cx="35.05" cy="42.54" r="1.27"/><circle class="cls-1" cx="77.05" cy="42.54" r="1.27"/><circle class="cls-1" cx="63.05" cy="42.54" r="1.27"/><circle class="cls-1" cx="49.05" cy="52.54" r="1.27"/><circle class="cls-1" cx="35.05" cy="52.54" r="1.27"/><circle class="cls-1" cx="77.05" cy="52.54" r="1.27"/><circle class="cls-1" cx="63.05" cy="52.54" r="1.27"/></g></svg>