<svg xmlns="http://www.w3.org/2000/svg" viewBox="0 0 112 112"><defs><style>.cls-1{fill:#4270b7;}</style></defs><title>kids</title><g id="Слой_11" data-name="Слой 11"><path class="cls-1" d="M74.71,85.25H30.25a8,8,0,0,1-8-8V45a8,8,0,0,1,8-8h2v4.94h4V37H72.5v4.94h4V37h2a8,8,0,0,1,8,8V70.63l-1.18-.22a10,10,0,0,0-1.82-.16,10,10,0,0,0-10,10,10,10,0,0,0,.68,3.64ZM30.25,39a6,6,0,0,0-6,6V77.25a6,6,0,0,0,6,6H71.88a12,12,0,0,1,1.66-9.69A11.87,11.87,0,0,1,77,70.19a12,12,0,0,1,7.55-1.9V45a6,6,0,0,0-6-6v4.94h-8V39H38.25v4.94h-8Z"/><path class="cls-1" d="M38.25,43.94h-8V32.06h8Zm-6-2h4V34.06h-4Z"/><path class="cls-1" d="M78.5,43.94h-8V32.06h8Zm-6-2h4V34.06h-4Z"/><rect class="cls-1" x="23.25" y="47" width="62.25" height="2"/><path class="cls-1" d="M38.25,63.13h-8v-8h8Zm-6-2h4v-4h-4Z"/><path class="cls-1" d="M51.67,63.13h-8v-8h8Zm-6-2h4v-4h-4Z"/><path class="cls-1" d="M65.08,63.13h-8v-8h8Zm-6-2h4v-4h-4Z"/><path class="cls-1" d="M78.5,63.13h-8v-8h8Zm-6-2h4v-4h-4Z"/><path class="cls-1" d="M38.25,75.13h-8v-8h8Zm-6-2h4v-4h-4Z"/><path class="cls-1" d="M51.67,75.13h-8v-8h8Zm-6-2h4v-4h-4Z"/><path class="cls-1" d="M65.08,75.13h-8v-8h8Zm-6-2h4v-4h-4Z"/><path class="cls-1" d="M74.91,75.12H70.5v-8h8v4.45l-.45.3a9.89,9.89,0,0,0-2.84,2.81Zm-2.41-2h1.35A11.85,11.85,0,0,1,76.5,70.5V69.12h-4Z"/><path class="cls-1" d="M83.5,92.25a12,12,0,1,1,0-24,12,12,0,0,1,0,24Zm0-22a10,10,0,0,0-10,10,10,10,0,0,0,.68,3.64A10,10,0,1,0,85.32,70.41,10.06,10.06,0,0,0,83.5,70.25Z"/><path class="cls-1" d="M82.73,84.53l-3.35-3.35a1,1,0,0,1,1.41-1.41l1.94,1.94,5-5a1,1,0,0,1,1.41,1.41Z"/></g></svg>