<svg width="170" height="50" viewBox="0 0 170 50" xmlns="http://www.w3.org/2000/svg"><title>Artboard 14</title><path d="M162.21 31.933a51.303 51.303 0 0 0-2.55-.326 20.38 20.38 0 0 0-1.932-.105c-3.193 0-5.606.528-7.23 1.587-1.638 1.052-2.446 2.632-2.446 4.719 0 1.696.566 3.018 1.693 3.976 1.14.968 2.7 1.451 4.705 1.451 1.508 0 2.91-.286 4.215-.85 1.31-.56 2.514-1.41 3.61-2.535a106.595 106.595 0 0 1-.085-2.514c-.012-.64-.012-1.273-.012-1.857 0-.37.012-.947.032-1.749.02-.786.02-1.386 0-1.797zM169 45.64c-.804.504-1.528.903-2.195 1.169-.65.262-1.232.399-1.73.399-.885 0-1.527-.274-1.927-.822-.4-.532-.635-1.418-.696-2.627-1.54 1.313-3.067 2.292-4.587 2.921-1.515.64-3.06.959-4.615.959-3.092 0-5.59-.862-7.477-2.587-1.9-1.724-2.85-3.993-2.85-6.801 0-3.183 1.31-5.738 3.917-7.652 2.602-1.926 6.11-2.876 10.52-2.876.72 0 1.487.02 2.3.068a90.61 90.61 0 0 1 2.615.234c.04-.178.06-.367.072-.568.013-.198.02-.42.02-.693 0-2.136-.61-3.764-1.814-4.876-1.205-1.128-2.95-1.684-5.238-1.684-1.9 0-3.456.314-4.684.939-1.221.624-2.223 1.595-2.983 2.909-.74-.19-1.306-.504-1.686-.955-.38-.451-.57-1.031-.57-1.757 0-1.495.95-2.732 2.858-3.71 1.908-.98 4.393-1.46 7.465-1.46 3.763 0 6.6.9 8.475 2.72 1.888 1.818 2.838 4.53 2.838 8.148 0 .685-.029 1.861-.097 3.541a117.94 117.94 0 0 0-.093 4.066c0 2.828.17 5.109.505 6.833.347 1.725.897 3.115 1.657 4.162zm-41.75-23.059c-.348 0-.833.02-1.455.053-.614.032-1.01.04-1.2.04-.845 0-1.435-.113-1.783-.359-.34-.23-.509-.64-.509-1.217 0-.261.04-.58.137-.934.097-.359.243-.766.457-1.221.158 0 .44.012.833.032.388.02.695.032.925.032.538 0 1.39-.032 2.563-.096.15 0 .262-.008.335-.033 0-.217.012-.556.032-1.007.025-.451.033-.786.033-.987 0-1.608-.093-3.018-.303-4.235-.202-1.233-.53-2.304-.962-3.227a19.417 19.417 0 0 1 2.384-.991c.696-.218 1.294-.33 1.79-.33.846 0 1.46.257 1.836.78.38.529.57 1.383.57 2.58 0 .511-.097 2.119-.275 4.835a790.574 790.574 0 0 1-.158 2.405 53.124 53.124 0 0 1 3.23-.367c.957-.084 1.81-.128 2.57-.128.687 0 1.168.128 1.475.37.295.254.445.653.445 1.197 0 .314-.097.693-.28 1.156a9.218 9.218 0 0 1-.812 1.556 16.527 16.527 0 0 0-1.693-.274 21.75 21.75 0 0 0-2.162-.093c-.138 0-.57.012-1.298.04-.715.032-1.325.065-1.847.085a462.262 462.262 0 0 0-.396 7.905c-.085 2.071-.13 3.763-.13 5.077 0 2.849.256 4.847.76 5.991.506 1.137 1.35 1.705 2.539 1.705.327 0 .679-.065 1.035-.194.36-.112.727-.314 1.099-.576.19.411.315.77.4 1.084.085.306.13.576.13.83 0 .995-.425 1.83-1.262 2.478-.832.645-1.915.967-3.245.967-2.223 0-3.88-.733-4.955-2.196-1.087-1.47-1.625-3.719-1.625-6.757 0-.862.11-3.143.307-6.854.21-3.698.36-6.736.465-9.122zm-26.355 25.457c-4.773 0-8.665-1.47-11.672-4.404-3.003-2.933-4.51-6.697-4.51-11.302 0-4.883 1.604-8.848 4.817-11.898 3.217-3.046 7.38-4.57 12.505-4.57 4.636 0 8.455 1.451 11.45 4.34 2.995 2.893 4.49 6.56 4.49 10.996 0 1.789-.282 3.554-.852 5.298-.558 1.745-1.33 3.224-2.296 4.456-1.835 2.366-3.904 4.13-6.224 5.319-2.316 1.177-4.883 1.765-7.708 1.765zm.368-4.436c3.347 0 6.075-1.116 8.205-3.345 2.13-2.228 3.197-5.084 3.197-8.574 0-3.404-1.047-6.18-3.133-8.324-2.09-2.144-4.81-3.215-8.14-3.215-3.395 0-6.147 1.112-8.232 3.34-2.094 2.228-3.133 5.17-3.133 8.848 0 3.26 1.063 5.963 3.181 8.087 2.122 2.123 4.81 3.183 8.055 3.183zm-37.97 2.345c-.865.451-1.657.79-2.373.999a7.418 7.418 0 0 1-2.142.326c-.885 0-1.515-.294-1.895-.886-.38-.576-.57-1.608-.57-3.09 0-.492.137-3.542.42-9.143.275-5.6.412-10.963.412-16.08 0-5.05-.117-8.514-.34-10.408-.225-1.894-.622-3.332-1.18-4.343.886-.448 1.702-.786 2.426-.996.74-.221 1.402-.326 1.992-.326.97 0 1.637.274 2.005.822.356.536.537 1.608.537 3.215 0 .367-.052 1.406-.157 3.11a349.16 349.16 0 0 0-.675 21.4c4.345-3.51 7.687-6.41 10.007-8.711 2.328-2.305 3.856-4.182 4.608-5.665 1.422.511 2.412 1.02 2.99 1.51.582.484.865 1.064.865 1.725 0 .883-2.61 3.353-7.84 7.422a369.927 369.927 0 0 0-5.57 4.372c.4.366.962.89 1.71 1.567 8.063 7.62 12.787 11.423 14.17 11.423h.125c-.19 1.229-.546 2.168-1.087 2.816-.526.641-1.225.967-2.065.967-1.379 0-4.321-2.288-8.836-6.861-3.597-3.659-6.652-6.6-9.142-8.84v1.386c0 3.324.13 5.95.388 7.88.255 1.939.667 3.397 1.217 4.409zM48.378 7.234c0 1.176-.413 2.143-1.233 2.933-.824.778-1.871 1.165-3.124 1.165-1.096 0-1.96-.303-2.59-.923-.648-.62-.959-1.45-.959-2.49 0-1.156.408-2.136 1.233-2.945.82-.806 1.819-1.217 2.99-1.217 1.076 0 1.953.326 2.648.987.687.653 1.035 1.483 1.035 2.49zm.242 38.648c-.865.476-1.69.822-2.47 1.052a8.235 8.235 0 0 1-2.254.338c-1.01 0-1.698-.274-2.058-.822-.355-.536-.533-1.631-.533-3.28 0-.934.093-3.058.283-6.337.178-3.288.275-6.109.275-8.474 0-2.562-.13-4.642-.372-6.25-.25-1.599-.651-2.965-1.2-4.093a10.13 10.13 0 0 1 2.34-1.027 8.247 8.247 0 0 1 2.38-.359c.95 0 1.592.234 1.94.693.352.463.53 1.314.53 2.579 0 .322-.093 2.12-.271 5.383a157.079 157.079 0 0 0-.287 9.3c0 2.751.137 5.024.42 6.829.275 1.809.707 3.3 1.277 4.468zM19.13 28.794c1.508.512 3.364 2.015 5.59 4.517.599.685 1.055 1.2 1.363 1.543 2.328 2.527 4.352 4.493 6.082 5.899 1.73 1.41 3.205 2.28 4.414 2.607-.598 1.595-1.22 2.744-1.884 3.437-.658.685-1.434 1.031-2.344 1.031-.768 0-1.6-.318-2.518-.959-.917-.632-1.992-1.68-3.225-3.142a342.093 342.093 0 0 1-3.763-4.437c-4.862-5.874-8.73-8.807-11.62-8.807-.327 0-.727.012-1.204.044-.473.032-1.063.093-1.758.177.125 4.573.327 7.926.622 10.049.287 2.123.728 3.775 1.326 4.948-.99.528-1.896.927-2.74 1.18-.833.262-1.6.391-2.3.391-1.136 0-1.908-.286-2.32-.862-.408-.58-.622-1.757-.622-3.546 0-.62.097-3.308.299-8.09.198-4.795.295-9.28.295-13.498 0-5.411-.15-9.425-.437-12.031C2.107 6.634 1.643 4.639 1 3.26a271.75 271.75 0 0 0 8.338-.379c2.898-.177 4.523-.262 4.85-.262 4.628 0 8.285 1.092 10.953 3.292 2.667 2.196 3.997 5.17 3.997 8.933 0 3.3-.845 6.125-2.53 8.482-1.69 2.345-4.175 4.17-7.477 5.467zM8.76 7.79c-.17 3.429-.287 6.709-.372 9.851a337.11 337.11 0 0 0-.125 9.11c.166 0 .412.013.727.033.316.024.558.032.728.032 4.195 0 7.485-.987 9.845-2.953 2.373-1.975 3.553-4.699 3.553-8.188 0-2.671-.873-4.73-2.615-6.189-1.738-1.462-4.183-2.188-7.36-2.188-.695 0-1.414.04-2.126.125-.727.085-1.479.202-2.255.367z" fill="#fff" fill-rule="evenodd"/></svg>