<svg id="Layer_1" xmlns="http://www.w3.org/2000/svg" viewBox="0 0 85 85"><style>.st0{fill:none;stroke:#64375a;stroke-linecap:round;stroke-miterlimit:10}.st1{fill:#ede1c7}.st2{fill:#4c81d2}.st3{fill:#d2dbea}</style><path class="st1" d="M46.6 60.2c2.1 2.7 1.5 6.6.9 10.7-.2 1.6-.8 5.1-.4 6.1h.2c4.3 0 9.6-5.1 14.1-13.6 4.1-7.8 7-17.5 7.2-24.1.1-3.4-.9-8.1-3.3-11.7-1.6-1.8-3.7-3.1-6.3-3.4-.7-.1-1.3-.1-1.9-.1-2 0-6.9 1.3-8.2 1.9s-2.1 1.2-2.3 2.4l-1.3 7h.1c4.3 0 7.7 3.6 7.7 8s-3.5 8-7.7 8c-.3 0-.7 0-1-.1l.2 7.1c.1 0 .6.2 1.2.8.3.4.5.6.8 1z"/><path class="st2" d="M57.6 19.8c-.8-.1-1.6-.2-2.4-.2-2.6 0-4.5.6-6.3 1.2-2 .6-3.8 1.2-6.6 1.3-2.8 0-4.7-.6-6.6-1.3-1.8-.6-3.7-1.2-6.3-1.2-.8 0-1.6.1-2.4.2C16.4 21 12.8 32.5 13 39.4c.2 7.1 3.1 17.3 7.2 25.4 2.9 5.7 9 15.2 17 15.2 1.1 0 1.9-.3 2.4-1 1.3-1.5 1-4.5.3-8.6-.5-3.5-1-6.8.3-8.4.5-.6 1.1-1 2-1 .9 0 1.6.4 2 1 1.3 1.6.8 4.9.3 8.4-.6 4.1-1 7.1.3 8.6.5.6 1.3.9 2.4.9 5.6 0 11.6-5.4 16.7-15.2 4.3-8.2 7.3-18.4 7.5-25.4.2-6.8-3.4-18.3-13.8-19.5zM37.8 60.2c-2.1 2.7-1.5 6.6-.9 10.7.2 1.6.8 5.1.4 6.1h-.2c-6.7 0-12.2-9.5-14.3-13.6-3.9-7.7-6.7-17.4-6.9-24.1-.1-5.9 2.8-15.6 11.2-16.6.7-.1 1.4-.1 2-.1 2.2 0 3.7.5 5.4 1.1 1.9.6 3.9 1.3 6.9 1.4l-2.1 9.6v.1c-.2 1.2.3 2.3 1.2 3.1s2.2 1.1 3.4.7c.4-.1.8-.2 1.3-.2 2.6 0 4.7 2.2 4.7 5s-2.1 5-4.7 5c-.9 0-1.8-.3-2.6-.8-.7-.6-1.8-.6-2.6-.2s-1.3 1.3-1.3 2.3l.3 9.4c-.4.3-.8.6-1.2 1.1zm23.5 3.2c-4.5 8.5-9.7 13.6-14 13.6h-.2c-.4-1 .2-4.5.4-6.1.6-4.2 1.2-8.1-.9-10.7-1-1.2-2.4-2-4.1-2.1h-.2L42 58l-.2-7.5c1.1.6 2.3.9 3.6.9 4.3 0 7.7-3.6 7.7-8s-3.5-8-7.7-8c-.7 0-1.4.1-2.1.3-.3.1-.5 0-.6-.1s-.2-.2-.2-.4L44.7 25c2.1-.3 3.7-.8 5.1-1.3 1.7-.6 3.2-1.1 5.4-1.1.6 0 1.3 0 2 .1 8.4 1 11.4 10.7 11.2 16.6-.1 6.6-3 16.3-7.1 24.1z"/><path class="st3" d="M39.5 34.7l1.6-7.4c-2-.8-5.6-2.1-10.7-2.1-7.8 0-11.3 9.4-11.2 15.1.1 6 2.8 14.8 6.5 22 3.5 6.6 8.9 11.8 11.8 14.1.1-1.4-.3-4.2-.5-5.5-.6-4.2-1.2-8.1.9-10.7.3-.4.7-.7 1.1-1l-.3-9.4c0-1 .5-1.8 1.3-2.3.9-.5 1.9-.4 2.7.2.8.5 1.7.8 2.6.8 2.6 0 4.7-2.2 4.7-5s-2.1-5-4.7-5c-.4 0-.9.1-1.3.2-1.2.4-2.5.1-3.4-.7s-1.3-1.9-1.2-3.1l.1-.2z"/></svg>