<svg id="Layer_1" xmlns="http://www.w3.org/2000/svg" viewBox="0 0 85 85"><style>.st0{fill:#d2dbea}.st1{fill:#ede1c7}.st2{fill:#4c81d2}</style><path class="st0" d="M75.1 45h-9.9c-.8 2-1.6 3.5-2.5 5.3-4.8 9.1-10.4 14.3-15.4 14.3-.8 0-1.1-.3-1.3-.5-1-1.1-.4-4.6 0-7.4.6-3.8 1.1-7.4-.6-9.6-.7-.9-1.8-1.4-3.1-1.6h-.2c-1.3.1-2.3.6-3.1 1.5-1.7 2.1-1.1 5.8-.6 9.6.4 2.8 1 6.3 0 7.4-.2.2-.5.4-1.3.4-7.2 0-12.9-8.8-15.7-14.2-.8-1.6-1.6-3.2-2.4-5.2h-5.8c-1.5 0-2.2.9-2.2 2.3v26.6c0 1.7 1 3.1 2.7 3.1h61.4c1.7 0 2.9-1.4 2.9-3.1V47.8c0-1.7-1.2-2.8-2.9-2.8z"/><path class="st1" d="M53.7 7.2c-1.7.2-3 .6-4.4 1.1-2 .6-4 1.3-7.1 1.4-3.1 0-5.1-.7-7.1-1.4-1.4-.5-2.8-.9-4.4-1.1-5.7 3.3-9.5 10-9.5 21.8 0 14.2 5.4 28.7 13 34.9 1 .3 1.9.5 3 .5.8 0 1.1-.2 1.3-.4 1-1.1.4-4.6 0-7.4-.6-3.8-1.1-7.4.6-9.6.7-.9 1.8-1.4 3.1-1.6h.2c1.3.1 2.3.6 3.1 1.6 1.7 2.1 1.1 5.8.6 9.6-.4 2.8-1 6.3 0 7.4.2.2.5.4 1.3.4 1 0 2-.2 3.1-.6C58 57.5 63.3 43.1 63.3 29c-.1-11.8-3.9-18.5-9.6-21.8z"/><path class="st2" d="M76 39h-7.1c1.6-5 2.5-9.8 2.6-13.6C71.6 18 67.8 7 57.6 5.8c-.9-.1-1.7-.2-2.4-.2-5.3 0-7.4 2.4-13 2.5-5.6-.1-7.7-2.5-13-2.5-.7 0-1.5 0-2.4.2C16.6 7 12.8 18 13 25.4c.1 3.8 1 8.6 2.5 13.6H9c-2.8 0-5 2.2-5 5v30c0 2.8 2.2 5 5 5h67c2.8 0 5-2.2 5-5V44c0-2.8-2.2-5-5-5zM27.2 8.8c.7-.1 1.4-.1 2-.1 2.2 0 3.7.4 5.4 1 2 .7 4.2 1.4 7.5 1.4s5.5-.7 7.5-1.4c1.7-.6 3.2-1 5.4-1 .6 0 1.3 0 2.1.1 8.4 1 11.4 10.7 11.2 16.6-.2 13.1-11.2 37.6-21 37.6h-.2c-.4-1 .1-4.3.4-6.1.6-4.2 1.2-8.1-.9-10.7-.7-.9-2-1.9-4.1-2.1h-.2L42 44c-2.2.2-3.4 1.2-4.1 2.1-2.1 2.7-1.5 6.6-.9 10.7.3 1.8.8 5.1.4 6.1h-.2c-4.7 0-9.9-4.9-14.3-13.6-3.9-7.7-6.7-17.4-6.9-24.1-.2-5.7 2.7-15.4 11.2-16.4zM78 74c0 1.1-.9 2-2 2H9c-1.1 0-2-.9-2-2V44c0-1.1.9-2 2-2h7.4c4.2 12 11.8 24 20.8 24 8.3 0-2.4-18.4 5-19 7.5.6-3.2 19 5 19 8.4 0 16.2-12 20.6-24H76c1.1 0 2 .9 2 2v30z"/><path class="st2" d="M34.7 15c1.6.6 4.9 1.5 8.1 1.6h.3c3.2 0 6.2-.8 7.8-1.6.3-.1.4-.4.3-.7-.1-.3-.4-.4-.7-.3-1.7.8-4.8 1.5-7.7 1.5-3.1-.1-6.2-1-7.8-1.5-.3-.1-.5.1-.6.3s.1.6.3.7zm-5.8-1.2l3 .4h.1c.2 0 .5-.2.5-.4 0-.3-.2-.5-.4-.6l-3-.4c-.3 0-.5.2-.6.4 0 .3.2.6.4.6zM30.8 72H15.2c-.3 0-.5.2-.5.5s.3.5.5.5h15.5c.3 0 .5-.2.5-.5s-.2-.5-.4-.5zm42.7-12c-.3 0-.5.2-.5.5v10.9c0 .3-.1.6-.4.6H34.5c-.3 0-.5.2-.5.5s.2.5.5.5h38.1c.8 0 1.4-.8 1.4-1.6V60.5c0-.3-.2-.5-.5-.5zm0-7c-.3 0-.5.2-.5.5v1.7c0 .3.2.5.5.5s.5-.2.5-.5v-1.7c0-.3-.2-.5-.5-.5z"/></svg>