<svg id="Layer_1" xmlns="http://www.w3.org/2000/svg" viewBox="0 0 85 85"><style>.st0{fill:#ede1c7}.st1{fill:#4c81d2}.st2{fill:#d2dbea}</style><path class="st0" d="M55.8 9.9h-.6c-2.2 0-3.7.3-5.4.9-2 .7-4.2 1.3-7.5 1.3s-5.5-.6-7.5-1.3c-1.7-.6-3.2-.9-5.4-.9h-.6c-4.5 3.7-7.4 10.1-7.4 20.4 0 2.4.2 4.7.4 7.1l4.9-3.2c.4-.3 1-.2 1.3.2l10.2 12.7c.4-.5 1-1 1.8-1.3l19.5-16.7c.4-.4 1-.4 1.4 0l2.3 2.3v-1.2c0-10.3-2.9-16.7-7.4-20.3z"/><path class="st1" d="M38.1 47.1l.1.2 1.7-1.5c-.8.3-1.4.8-1.8 1.3z"/><path class="st2" d="M70.2 29.9l-3.6 3.6c-.4.4-1 .4-1.4 0l-4.4-4.4c-.4-.4-1-.4-1.4 0l-2 1.7c1.1 4.6 1.7 9.2 1.7 13.7 0 16.3-7.8 27-19.4 32 .8 0 1.7.1 2.5.1 2.8 0 5.4-.2 8-.7 12.6-4.9 21.3-16 21.3-33.5 0-4.1-.4-8.3-1.3-12.5z"/><path class="st1" d="M34.7 16.2c1.6.6 4.9 1.5 8.1 1.6h.3c3.2 0 6.2-.8 7.8-1.6.3-.1.4-.4.3-.7-.1-.3-.4-.4-.7-.3-1.7.8-4.8 1.5-7.7 1.5-3.1-.1-6.2-1-7.8-1.5-.3-.1-.5.1-.6.3s.1.6.3.7zM12 41.1c-.3 0-.5.2-.5.5 0 2.3.2 4.5.5 6.6 0 .2.3.4.5.4h.1c.3 0 .5-.3.4-.6-.3-2-.5-4.2-.5-6.4 0-.2-.3-.5-.5-.5zM43.6 71.6c-14.3 0-25-6.6-29.2-18-.1-.3-.4-.4-.6-.3-.3.1-.4.4-.3.6C17.8 65.6 29 72.6 43.6 72.6c.3 0 .5-.2.5-.5s-.2-.5-.5-.5z"/><path class="st1" d="M75.3 27.7c-.3-.8-1-1.4-1.8-1.6-.7-.2-1.5 0-2 .4.1-7.4-3.7-18.3-13.9-19.5-.9-.1-1.7-.2-2.4-.2-5.3 0-7.4 2.4-13 2.5-5.6-.1-7.7-2.5-13-2.5-.7 0-1.5 0-2.4.2-10.2 1.2-14 12.2-13.8 19.6 0 1 .1 2.1.2 3.2l-.5-.6c-.6-.7-1.5-1-2.4-.9-.9.2-1.6.8-1.9 1.7-1.4 4.7-2.2 9.1-2.2 13.4 0 21.1 14.1 34.7 36 34.7s36-13.6 36-34.7c0-4.9-1-10.2-2.9-15.7zM27.2 10c.7-.1 1.4-.1 2-.1 2.2 0 3.7.3 5.4.9 2 .7 4.2 1.3 7.5 1.3s5.5-.6 7.5-1.3c1.7-.6 3.2-.9 5.4-.9.6 0 1.3.1 2.1.2 8.4 1 11.4 10.7 11.2 16.6 0 1-.1 2.1-.3 3.2l-2.3 2.3-4-4c-1-1-2.5-1-3.4-.1l-20 17.1-9.4-11.7c-.8-1-2.2-1.2-3.3-.5l-6.5 4.2-2.1-2.8c-.6-2.8-1-5.5-1.1-7.8-.1-5.9 2.8-15.6 11.3-16.6zm15 65.2c-24.3 0-33-16.4-33-31.7 0-3.7.6-7.6 1.8-11.6l6.2 7.5c.8 1 2.2 1.2 3.3.5l6.5-4.2L36.2 47l-2.4 2.1c-.6.5-.7 1.5-.1 2.1.3.3.7.5 1.1.5.4 0 .7-.1 1-.4l3.4-3 20.9-17.8 4 4c1 1 2.6 1 3.5 0l5.1-5.1c1.7 4.9 2.5 9.6 2.5 14 0 15.4-8.6 31.8-33 31.8z"/></svg>