<svg id="Layer_1" xmlns="http://www.w3.org/2000/svg" viewBox="0 0 85 85"><style>.st0{fill:#d5ddec}.st1{fill:#4c81d2}.st2{fill:#ede1c7}</style><path class="st0" d="M64.2 14.2l-11-4.3-6.6 22.3c2.1.5 3.9 1.4 5.5 2.7l12.1-20.7zm-32 41.1l-20 9.4 10.6 3.1 14-8.8c-1.8-.9-3.3-2.2-4.6-3.7zm-10-41.1l12.4 20.6c.9-.7 2-1.4 3.1-1.8l-6.5-22-9 3.2zm32.1 41.3c-1.3 1.5-2.9 2.7-4.7 3.6l13.6 8.6 10.6-3.1-19.5-9.1z"/><path class="st1" d="M80.1 55c-.2-2.3-1.4-3.9-3.4-4.5-2.2-.7-10.1-2.9-17.6-5v.7c0 .4 0 .9-.1 1.3 0-.4.1-.8.1-1.3 0-1-.1-2-.3-3 8.6-3.8 16.9-8.6 17.9-9.2 1.6-.7 2.5-2.5 2-4.2-.5-1.8-1.9-2.9-3.1-4-.8-.7-1.5-1.3-1.9-2-.6-1.1-1-2.3-1.5-3.6-.8-2.2-1.6-4.6-3.5-6.4-1.9-1.8-4.9-2.5-7.9-3.1-1.8-.4-3.5-.8-4.6-1.3-1.2-.6-2.1-1.1-3.1-1.7-2.9-1.6-5.4-3-10.2-3-4.8 0-7.2 1.4-9.9 3-1 .6-2 1.1-3.2 1.7-1.2.6-2.8.9-4.5 1.3-2.9.7-5.8 1.3-7.7 3.1-1.9 1.8-2.7 4.1-3.5 6.4-.5 1.3-.9 2.5-1.5 3.6-.4.7-1.1 1.3-1.9 2-1.2 1-2.6 2.2-3.1 4-.5 1.7.3 3.4 1.8 4.2 1 .6 9.5 5.6 18.2 9.4-.1.6-.2 1.2-.2 1.7-7.8 2.2-16.3 4.6-18.6 5.3-1.9.6-3.2 2.2-3.4 4.4-.2 4 2.6 9.7 7.8 12.2 2.3 1.1 4.3 1.4 6.5 1.7 1.8.3 3.6.5 5.8 1.3 1.6.6 3.1 2.1 4.7 3.6C33 76.5 36.6 80 42.5 80h.6c5.9 0 9.5-3.6 12.4-6.4 1.6-1.6 3.1-3.1 4.7-3.7 2.2-.8 4.1-.9 5.9-1.1 2-.1 4.1-.3 6.4-1.4 5.1-2.5 8-8.4 7.6-12.4zM10.7 31.3c-.2-.1-.3-.4-.2-.6.3-.9 1.2-1.7 2.2-2.5 1-.8 1.9-1.7 2.6-2.8.7-1.3 1.2-2.7 1.7-4.1.7-2 1.4-3.9 2.7-5.2 1.3-1.2 3.9-1.8 6.3-2.4 1.8-.4 3.7-.9 5.2-1.6 1.3-.6 2.4-1.3 3.4-1.8C37.2 8.8 39 7.7 43 7.7c4.1 0 6 1.1 8.8 2.7.9.5 2 1.1 3.3 1.7 1.5.7 3.3 1.1 5.3 1.6 2.5.6 5.2 1.2 6.5 2.4 1.4 1.3 2 3.2 2.7 5.2.5 1.4 1 2.8 1.7 4.1.6 1.2 1.6 2 2.6 2.8 1 .8 1.9 1.6 2.2 2.5.1.2-.1.5-.3.6l-.2.1c-.1.1-8.7 5-17.4 8.9-2.3-5.9-8.1-10-14.7-10-6.8 0-12.5 4.3-14.8 10.2-8.8-3.9-17.4-9-17.6-9.1l-.4-.1zm47.9 10.4zm-2.4 4.5c0 7.1-5.8 12.9-12.9 12.9-7.1 0-12.9-5.8-12.9-12.9 0-7.1 5.8-12.9 12.9-12.9 7.1 0 12.9 5.8 12.9 12.9zM28 41.9zm-.5 5.5c0-.4-.1-.8-.1-1.2 0 .4.1.8.1 1.2zm43.7 17.3c-1.8.9-3.4 1-5.3 1.1-1.9.1-4 .3-6.7 1.2-2.2.8-4 2.5-5.8 4.4-2.7 2.7-5.6 5.6-10.2 5.6h-.6c-4.7 0-7.5-2.8-10.3-5.5-1.8-1.8-3.6-3.5-5.8-4.3-2.5-.9-4.6-1.2-6.4-1.5-2-.3-3.7-.5-5.6-1.5-3.8-1.9-6.2-6.3-6-9.2.1-1.5.9-1.7 1.2-1.8 2.3-.7 10.3-2.9 17.9-5.1 1 7.8 7.7 13.8 15.7 13.8 8 0 14.5-5.9 15.7-13.5 7.3 2.1 14.7 4.2 16.9 4.8.3.1 1.1.3 1.2 1.9.3 3.1-2.1 7.7-5.9 9.6z"/><path class="st1" d="M60.6 52.9c-.3-.1-.5 0-.7.3-2.8 6.7-9.3 11.1-16.6 11.1-2.8 0-5.5-.6-8-1.9-.2-.1-.5 0-.7.2-.1.2 0 .5.2.7 2.6 1.3 5.5 2 8.4 2 7.7 0 14.6-4.6 17.6-11.7.2-.3.1-.6-.2-.7z"/><path class="st2" d="M43.3 35h-.8c.5 1.1.8 2.3.8 3.6 0 4.9-4 8.9-8.9 8.9-.8 0-1.5-.1-2.2-.3.5 5.7 5.3 10.1 11.1 10.1 6.2 0 11.2-5 11.2-11.2S49.5 35 43.3 35z"/></svg>