<svg id="Layer_1" data-name="Layer 1" xmlns="http://www.w3.org/2000/svg" viewBox="0 0 85 85"><defs><style>.cls-1,.cls-2{fill:#fff}.cls-1{opacity:.4}</style></defs><title>Монтажная область 1 копия 4</title><path class="cls-1" d="M58 17.85a17 17 0 0 0-2.2-.1c-.46 0-.89 0-1.3.06a15.23 15.23 0 0 0-3 .55l-.73.23-.83.26-.65.23h-.1a18.29 18.29 0 0 1-6.2 1.14h-.2a22.45 22.45 0 0 1-6.2-1.14h-.1l-.75-.23a26.22 26.22 0 0 0-4.43-1 13.58 13.58 0 0 0-1.47-.08 17 17 0 0 0-2.2.1c-9.4 1.1-12.7 11.7-12.5 18.1.1 6.9 3 16.8 7 24.7C24.87 66 30.57 75 37.77 75a1.62 1.62 0 0 0 1.3-.4c1-1.13.37-4.59 0-7.36-.5-3.8-1.1-7.5.6-9.6a3.52 3.52 0 0 1 .33-.34l.14-.13a1.72 1.72 0 0 1 .25-.22 2 2 0 0 1 .35-.25 4.3 4.3 0 0 1 .71-.36 4.62 4.62 0 0 1 1.32-.34H43a4.68 4.68 0 0 1 3.1 1.6c1.7 2.2 1.2 5.8.6 9.6-.4 2.8-1 6.3 0 7.4a1.62 1.62 0 0 0 1.3.4c5 0 10.6-5.3 15.2-14.4 4.2-8 7.1-17.9 7.3-24.7.17-6.35-3.13-16.9-12.5-18.05zm-.2 1.4c6.4.8 9.6 6.5 10.7 11.9a28.7 28.7 0 0 1-4.85 3c-.9-7.26-3.55-12.06-7.28-15 .4-.03.88.03 1.4.1zm-29.9 0a10.21 10.21 0 0 1 1.44-.09c-3.81 3.07-6.47 8.08-7.22 15.72a38.39 38.39 0 0 1-5.32-3.13c1.2-5.5 4.47-11.75 11.07-12.5zm-4.2 40.6c-3.9-7.7-6.7-17.4-6.9-24.1a13.33 13.33 0 0 1 0-2 36.34 36.34 0 0 0 5.18 3c0 .91-.08 1.85-.08 2.83 0 11.36 3.46 22.92 8.74 30.26a36.75 36.75 0 0 1-6.97-9.99zM55.87 69c4.92-7.37 8.1-18.48 8.1-29.4 0-1.14 0-2.24-.13-3.29a33.07 33.07 0 0 0 5.23-3.11c0 1.1.1 2 .1 2.7C69 45.54 63 61.28 55.87 69z"/><path class="cls-2" d="M34.37 24.55a28 28 0 0 0 8.1 1.6h.3a19 19 0 0 0 7.8-1.6.54.54 0 0 0-.4-1 20.22 20.22 0 0 1-7.7 1.5 30.7 30.7 0 0 1-7.8-1.5.49.49 0 0 0-.6.3.61.61 0 0 0 .3.7z"/><path class="cls-2" d="M73.87 27.75a1 1 0 0 0-1.4 0l-.4.3-.9.9c-1.7-5.9-5.7-11.7-12.9-12.6a23.21 23.21 0 0 0-2.4-.2c-5.3 0-7.4 2.4-13 2.5-5.6-.1-7.7-2.5-13-2.5a10.57 10.57 0 0 0-2.4.2c-7.5.9-11.6 7.1-13.1 13.2-.7-.7-1.3-1.3-1.7-1.8a1 1 0 0 0-1.4-.1 1 1 0 0 0-.2 1.4 24.8 24.8 0 0 0 2.8 2.7 29.34 29.34 0 0 0-.3 4.1c.3 13.6 10.8 40.6 24.2 40.6 8.3 0-2.4-18.4 5-19 7.5.6-3.2 19 5 19 12.6 0 23.9-27 24.2-40.6a27.41 27.41 0 0 0-.4-4.8l1.8-1.8.3-.2a.76.76 0 0 0 .2-1.3zM55.85 69c-2.56 2.77-5.26 4.48-7.88 4.48h-.2c-.4-1 .1-4.3.4-6.1.6-4.2 1.2-8.1-.9-10.7a5.73 5.73 0 0 0-4.1-2.1h-.4a5.52 5.52 0 0 0-4.1 2.1c-2.1 2.7-1.5 6.6-.9 10.7.3 1.8.8 5.1.4 6.1H38c-2.38 0-4.89-1.26-7.36-3.64a36.75 36.75 0 0 1-6.94-10c-3.9-7.7-6.7-17.4-6.9-24.1a13.33 13.33 0 0 1 0-2 36.34 36.34 0 0 0 5.18 3A40.21 40.21 0 0 0 33.67 40v2a2.46 2.46 0 0 0 2.3 2.2H50c1.1 0 1.7-1.1 1.7-2.2v-2.1a43.4 43.4 0 0 0 12.17-3.59 33.07 33.07 0 0 0 5.23-3.11c0 1.1.1 2 .1 2.7C69 45.54 63 61.28 55.87 69zM29.31 19.16h.56a14.91 14.91 0 0 1 5.4.9 22.28 22.28 0 0 0 15 0 14.85 14.85 0 0 1 5.4-1 5.33 5.33 0 0 1 .67 0c.43 0 .91.09 1.43.16 6.4.8 9.6 6.5 10.7 11.9a28.7 28.7 0 0 1-4.85 3A47.55 47.55 0 0 1 51.37 38v-.6c0-1.1-.6-2.1-1.7-2.1h-14a2.37 2.37 0 0 0-2.3 2.1v.8a38.88 38.88 0 0 1-11.28-3.37 38.39 38.39 0 0 1-5.32-3.13c1.2-5.5 4.5-11.7 11.1-12.5a10.21 10.21 0 0 1 1.44-.04z"/></svg>