<svg id="Layer_1" data-name="Layer 1" xmlns="http://www.w3.org/2000/svg" viewBox="0 0 85 85"><defs><style>.cls-1,.cls-2{fill:#fff}.cls-1{opacity:.4}</style></defs><title>Монтажная область 1 копия 5</title><path class="cls-1" d="M63.94 14.35l-11-4.3-6.6 22.3a13.51 13.51 0 0 1 5.5 2.7zm-32 41.1l-20 9.4 10.6 3.1 14-8.8a15 15 0 0 1-4.6-3.7zm-10-41.1l12.4 20.6a12 12 0 0 1 3.1-1.8l-6.5-22zM54 55.65a15.12 15.12 0 0 1-4.7 3.6l13.6 8.6 10.6-3.1z"/><path class="cls-2" d="M79.84 55.15a4.77 4.77 0 0 0-3.4-4.5c-2.2-.7-10.1-2.9-17.6-5v.7a5.7 5.7 0 0 1-.1 1.3c0-.4.1-.8.1-1.3a15.26 15.26 0 0 0-.3-3 194.94 194.94 0 0 0 17.9-9.2 3.54 3.54 0 0 0 2-4.2c-.5-1.8-1.9-2.9-3.1-4a8.75 8.75 0 0 1-1.9-2 30 30 0 0 1-1.5-3.6c-.8-2.2-1.6-4.6-3.5-6.4s-4.9-2.5-7.9-3.1a26.36 26.36 0 0 1-4.6-1.3c-1.2-.6-2.1-1.1-3.1-1.7-2.9-1.6-5.4-3-10.2-3s-7.2 1.4-9.9 3c-1 .6-2 1.1-3.2 1.7a22.06 22.06 0 0 1-4.5 1.3c-2.9.7-5.8 1.3-7.7 3.1s-2.7 4.1-3.5 6.4a30 30 0 0 1-1.5 3.6 8.75 8.75 0 0 1-1.9 2 8.37 8.37 0 0 0-3.1 4 3.59 3.59 0 0 0 1.8 4.2 184 184 0 0 0 18.2 9.4 11.14 11.14 0 0 0-.2 1.7c-7.8 2.2-16.3 4.6-18.6 5.3A4.87 4.87 0 0 0 5.14 55c-.2 4 2.6 9.7 7.8 12.2a20.22 20.22 0 0 0 6.5 1.7 29.37 29.37 0 0 1 5.8 1.3c1.6.6 3.1 2.1 4.7 3.6 2.8 2.9 6.4 6.4 12.3 6.4h.6c5.9 0 9.5-3.6 12.4-6.4 1.6-1.6 3.1-3.1 4.7-3.7a23.25 23.25 0 0 1 5.9-1.1 15.79 15.79 0 0 0 6.4-1.4c5.1-2.55 8-8.45 7.6-12.45zm-69.4-23.7a.48.48 0 0 1-.2-.6 6.31 6.31 0 0 1 2.2-2.5 11.56 11.56 0 0 0 2.6-2.8 29.48 29.48 0 0 0 1.7-4.1 13.52 13.52 0 0 1 2.7-5.2c1.3-1.2 3.9-1.8 6.3-2.4a26.36 26.36 0 0 0 5.2-1.6c1.3-.6 2.4-1.3 3.4-1.8 2.6-1.5 4.4-2.6 8.4-2.6s6 1.1 8.8 2.7c.9.5 2 1.1 3.3 1.7a30.37 30.37 0 0 0 5.3 1.6c2.5.6 5.2 1.2 6.5 2.4s2 3.2 2.7 5.2a29.48 29.48 0 0 0 1.7 4.1 8.71 8.71 0 0 0 2.6 2.8 6.31 6.31 0 0 1 2.2 2.5c.1.2-.1.5-.3.6l-.2.1c-.1.1-8.7 5-17.4 8.9a15.82 15.82 0 0 0-29.5.2c-8.8-3.9-17.4-9-17.6-9.1l-.4-.1zm45.5 14.9A12.9 12.9 0 1 1 43 33.45a12.93 12.93 0 0 1 12.94 12.9zm-28.7 1.2c0-.4-.1-.8-.1-1.2 0 .4.1.8.1 1.2zm43.7 17.3a12.3 12.3 0 0 1-5.3 1.1 23.76 23.76 0 0 0-6.7 1.2c-2.2.8-4 2.5-5.8 4.4-2.7 2.7-5.6 5.6-10.2 5.6h-.6c-4.7 0-7.5-2.8-10.3-5.5-1.8-1.8-3.6-3.5-5.8-4.3a33.72 33.72 0 0 0-6.4-1.5 16.09 16.09 0 0 1-5.6-1.5c-3.8-1.9-6.2-6.3-6-9.2.1-1.5.9-1.7 1.2-1.8 2.3-.7 10.3-2.9 17.9-5.1a15.85 15.85 0 0 0 31.4.3c7.3 2.1 14.7 4.2 16.9 4.8.3.1 1.1.3 1.2 1.9.3 3.1-2.1 7.7-5.9 9.6z"/><path class="cls-2" d="M60.34 53.05c-.3-.1-.5 0-.7.3A18 18 0 0 1 43 64.45a17.14 17.14 0 0 1-8-1.9.51.51 0 1 0-.5.9 18.88 18.88 0 0 0 8.4 2 19.08 19.08 0 0 0 17.6-11.7.43.43 0 0 0-.16-.7z"/><path class="cls-1" d="M43 35.15h-.8a8.63 8.63 0 0 1 .8 3.6 8.92 8.92 0 0 1-8.9 8.9 7.8 7.8 0 0 1-2.2-.3A11.17 11.17 0 1 0 43 35.15z"/></svg>