<svg id="Layer_1" data-name="Layer 1" xmlns="http://www.w3.org/2000/svg" viewBox="0 0 85 85"><defs><style>.cls-1,.cls-2{fill:#fff}.cls-1{opacity:.4}</style></defs><title>Монтажная область 1 копия 7</title><path class="cls-1" d="M47.14 52.9c2.1 2.7 1.5 6.6.9 10.7-.2 1.6-.8 5.1-.4 6.1h.2c4.3 0 9.6-5.1 14.1-13.6 4.1-7.8 7-17.5 7.2-24.1a21.33 21.33 0 0 0-3.3-11.7 9.85 9.85 0 0 0-6.3-3.4 12.75 12.75 0 0 0-1.9-.1 31.87 31.87 0 0 0-8.2 1.9c-1.3.6-2.1 1.2-2.3 2.4l-1.3 7h.1a8 8 0 0 1 0 16 3.4 3.4 0 0 1-1-.1l.2 7.1a2.71 2.71 0 0 1 1.2.8c.3.4.5.6.8 1z"/><path class="cls-2" d="M58.14 12.5a19.42 19.42 0 0 0-2.4-.2 18.57 18.57 0 0 0-6.3 1.2 23.36 23.36 0 0 1-6.6 1.3 17.57 17.57 0 0 1-6.6-1.3 18.57 18.57 0 0 0-6.3-1.2 19.42 19.42 0 0 0-2.4.2c-10.6 1.2-14.2 12.7-14 19.6.2 7.1 3.1 17.3 7.2 25.4 2.9 5.7 9 15.2 17 15.2a2.72 2.72 0 0 0 2.4-1c1.3-1.5 1-4.5.3-8.6-.5-3.5-1-6.8.3-8.4a2.46 2.46 0 0 1 2-1 2.33 2.33 0 0 1 2 1c1.3 1.6.8 4.9.3 8.4-.6 4.1-1 7.1.3 8.6a3 3 0 0 0 2.4.9c5.6 0 11.6-5.4 16.7-15.2 4.3-8.2 7.3-18.4 7.5-25.4.2-6.8-3.4-18.3-13.8-19.5zm-19.8 40.4c-2.1 2.7-1.5 6.6-.9 10.7.2 1.6.8 5.1.4 6.1h-.2c-6.7 0-12.2-9.5-14.3-13.6-3.9-7.7-6.7-17.4-6.9-24.1-.1-5.9 2.8-15.6 11.2-16.6a14.08 14.08 0 0 1 2-.1A14.81 14.81 0 0 1 35 16.4a23.2 23.2 0 0 0 6.9 1.4l-2.1 9.6v.1a3.37 3.37 0 0 0 1.2 3.1 3.48 3.48 0 0 0 3.4.7 5.07 5.07 0 0 1 1.3-.2 5 5 0 0 1 0 10 5 5 0 0 1-2.6-.8 2.44 2.44 0 0 0-2.6-.2 2.53 2.53 0 0 0-1.3 2.3l.3 9.4a6 6 0 0 0-1.16 1.1zm23.5 3.2c-4.5 8.5-9.7 13.6-14 13.6h-.2c-.4-1 .2-4.5.4-6.1.6-4.2 1.2-8.1-.9-10.7A5.69 5.69 0 0 0 43 50.8h-.2l-.3-.1-.2-7.5a7.4 7.4 0 0 0 3.6.9 8 8 0 0 0 0-16 7.61 7.61 0 0 0-2.1.3.56.56 0 0 1-.6-.1.52.52 0 0 1-.2-.4l2.2-10.2a25 25 0 0 0 5.1-1.3 14.81 14.81 0 0 1 5.4-1.1 14.08 14.08 0 0 1 2 .1c8.4 1 11.4 10.7 11.2 16.6-.06 6.6-2.96 16.3-7.06 24.1z"/><path class="cls-1" d="M40 27.4l1.6-7.4a27.83 27.83 0 0 0-10.7-2.1c-7.8 0-11.3 9.4-11.2 15.1.1 6 2.8 14.8 6.5 22A48.35 48.35 0 0 0 38 69.1a33.08 33.08 0 0 0-.5-5.5c-.6-4.2-1.2-8.1.9-10.7a5.24 5.24 0 0 1 1.1-1l-.3-9.4a2.65 2.65 0 0 1 1.3-2.3 2.42 2.42 0 0 1 2.7.2 5 5 0 0 0 2.6.8 5 5 0 0 0 0-10 5.85 5.85 0 0 0-1.3.2 3.48 3.48 0 0 1-3.4-.7 3.62 3.62 0 0 1-1.2-3.1z"/></svg>