<?xml version="1.0" encoding="UTF-8" standalone="no"?>
<svg
   xmlns:dc="http://purl.org/dc/elements/1.1/"
   xmlns:cc="http://creativecommons.org/ns#"
   xmlns:rdf="http://www.w3.org/1999/02/22-rdf-syntax-ns#"
   xmlns:svg="http://www.w3.org/2000/svg"
   xmlns="http://www.w3.org/2000/svg"
   xmlns:sodipodi="http://sodipodi.sourceforge.net/DTD/sodipodi-0.dtd"
   xmlns:inkscape="http://www.inkscape.org/namespaces/inkscape"
   viewBox="0 0 112 112"
   version="1.1"
   id="svg4679"
   sodipodi:docname="wifi.svg"
   inkscape:version="0.92.1 r15371">
  <metadata
     id="metadata4683">
    <rdf:RDF>
      <cc:Work
         rdf:about="">
        <dc:format>image/svg+xml</dc:format>
        <dc:type
           rdf:resource="http://purl.org/dc/dcmitype/StillImage" />
        <dc:title>kids</dc:title>
      </cc:Work>
    </rdf:RDF>
  </metadata>
  <sodipodi:namedview
     pagecolor="#ffffff"
     bordercolor="#666666"
     borderopacity="1"
     objecttolerance="10"
     gridtolerance="10"
     guidetolerance="10"
     inkscape:pageopacity="0"
     inkscape:pageshadow="2"
     inkscape:window-width="1920"
     inkscape:window-height="1018"
     id="namedview4681"
     showgrid="false"
     inkscape:zoom="2.1071429"
     inkscape:cx="-21.118644"
     inkscape:cy="56"
     inkscape:window-x="1358"
     inkscape:window-y="-8"
     inkscape:window-maximized="1"
     inkscape:current-layer="svg4679" />
  <defs
     id="defs4666">
    <style
       id="style4664">.cls-1{fill:#bfa982;}</style>
  </defs>
  <title
     id="title4668">kids</title>
  <g
     id="Слой_5"
     data-name="Слой 5"
     style="fill:#4b81d3;fill-opacity:1">
    <path
       class="cls-1"
       d="M56,87.22a7.57,7.57,0,1,1,7.57-7.57A7.58,7.58,0,0,1,56,87.22Zm0-13.15a5.57,5.57,0,1,0,5.57,5.57A5.58,5.58,0,0,0,56,74.07Z"
       id="path4670"
       style="fill:#4b81d3;fill-opacity:1" />
    <path
       class="cls-1"
       d="M72.34,69.43a1,1,0,0,1-.82-.43,18.82,18.82,0,0,0-30.85-.26A1,1,0,0,1,39,67.57a20.82,20.82,0,0,1,34.12.29,1,1,0,0,1-.82,1.57Z"
       id="path4672"
       style="fill:#4b81d3;fill-opacity:1" />
    <path
       class="cls-1"
       d="M30.6,55.8a1,1,0,0,1-.71-1.7,36.53,36.53,0,0,1,52.22,0,1,1,0,0,1-1.43,1.4,34.53,34.53,0,0,0-49.37,0A1,1,0,0,1,30.6,55.8Z"
       id="path4674"
       style="fill:#4b81d3;fill-opacity:1" />
    <path
       class="cls-1"
       d="M22,43.38a1,1,0,0,1-.67-1.74,51.44,51.44,0,0,1,69.35,0,1,1,0,0,1-1.35,1.48,49.44,49.44,0,0,0-66.65,0A1,1,0,0,1,22,43.38Z"
       id="path4676"
       style="fill:#4b81d3;fill-opacity:1" />
  </g>
</svg>
